<?xml version="1.0" standalone="no"?>
 <!DOCTYPE svg PUBLIC "-//W3C//DTD SVG 1.1//EN" 
 "http://www.w3.org/Graphics/SVG/1.1/DTD/svg11.dtd"> 
<svg
  xmlns:svg="http://www.w3.org/2000/svg"
  xmlns="http://www.w3.org/2000/svg"
  xmlns:xlink="http://www.w3.org/1999/xlink"
  version="1.1"
  width="21.219160cm" height="5.196840cm" viewBox="0 0 83540 20460">
<title>SVG Picture created as imunodes-brd.svg date 2020/12/13 23:10:00 </title>
  <desc>Picture generated by PCBNEW </desc>
<g style="fill:#000000; fill-opacity:1;stroke:#000000; stroke-opacity:1;
stroke-linecap:round; stroke-linejoin:round;"
 transform="translate(0 0) scale(1 1)">
</g>
<g style="fill:#000000; fill-opacity:0.0; 
stroke:#000000; stroke-width:-0.000393701; stroke-opacity:1; 
stroke-linecap:round; stroke-linejoin:round;">
<g >
</g>
<g style="fill:#000000; fill-opacity:1.0; 
stroke:#000000; stroke-width:0; stroke-opacity:1; 
stroke-linecap:round; stroke-linejoin:round;">
<circle cx="57787.4" cy="4950.79" r="393.701" /> 
</g>
<g style="fill:#000000; fill-opacity:1.0; 
stroke:#000000; stroke-width:39.3701; stroke-opacity:1; 
stroke-linecap:round; stroke-linejoin:round;">
</g>
<g style="fill:#000000; fill-opacity:1.0; 
stroke:#000000; stroke-width:0; stroke-opacity:1; 
stroke-linecap:round; stroke-linejoin:round;">
<circle cx="57787.4" cy="5950.79" r="393.701" /> 
</g>
<g style="fill:#000000; fill-opacity:1.0; 
stroke:#000000; stroke-width:39.3701; stroke-opacity:1; 
stroke-linecap:round; stroke-linejoin:round;">
</g>
<g style="fill:#000000; fill-opacity:1.0; 
stroke:#000000; stroke-width:0; stroke-opacity:1; 
stroke-linecap:round; stroke-linejoin:round;">
<circle cx="57787.4" cy="6950.79" r="393.701" /> 
</g>
<g style="fill:#000000; fill-opacity:1.0; 
stroke:#000000; stroke-width:39.3701; stroke-opacity:1; 
stroke-linecap:round; stroke-linejoin:round;">
</g>
<g style="fill:#000000; fill-opacity:1.0; 
stroke:#000000; stroke-width:0; stroke-opacity:1; 
stroke-linecap:round; stroke-linejoin:round;">
<circle cx="57787.4" cy="7950.79" r="393.701" /> 
</g>
<g style="fill:#000000; fill-opacity:1.0; 
stroke:#000000; stroke-width:39.3701; stroke-opacity:1; 
stroke-linecap:round; stroke-linejoin:round;">
</g>
<g style="fill:#000000; fill-opacity:1.0; 
stroke:#000000; stroke-width:0; stroke-opacity:1; 
stroke-linecap:round; stroke-linejoin:round;">
<circle cx="57787.4" cy="8950.79" r="393.701" /> 
</g>
<g style="fill:#000000; fill-opacity:1.0; 
stroke:#000000; stroke-width:39.3701; stroke-opacity:1; 
stroke-linecap:round; stroke-linejoin:round;">
</g>
<g >
</g>
<g >
</g>
<g >
</g>
<g style="fill:#000000; fill-opacity:1.0; 
stroke:#000000; stroke-width:39.3701; stroke-opacity:1; 
stroke-linecap:round; stroke-linejoin:round;">
</g>
<g style="fill:#000000; fill-opacity:1.0; 
stroke:#000000; stroke-width:0; stroke-opacity:1; 
stroke-linecap:round; stroke-linejoin:round;">
<circle cx="60133.9" cy="10903.5" r="393.701" /> 
</g>
<g style="fill:#000000; fill-opacity:1.0; 
stroke:#000000; stroke-width:39.3701; stroke-opacity:1; 
stroke-linecap:round; stroke-linejoin:round;">
</g>
<g style="fill:#000000; fill-opacity:1.0; 
stroke:#000000; stroke-width:0; stroke-opacity:1; 
stroke-linecap:round; stroke-linejoin:round;">
<circle cx="60133.9" cy="9903.54" r="393.701" /> 
</g>
<g style="fill:#000000; fill-opacity:1.0; 
stroke:#000000; stroke-width:39.3701; stroke-opacity:1; 
stroke-linecap:round; stroke-linejoin:round;">
</g>
<g style="fill:#000000; fill-opacity:1.0; 
stroke:#000000; stroke-width:0; stroke-opacity:1; 
stroke-linecap:round; stroke-linejoin:round;">
<circle cx="60133.9" cy="8903.54" r="393.701" /> 
</g>
<g style="fill:#000000; fill-opacity:1.0; 
stroke:#000000; stroke-width:39.3701; stroke-opacity:1; 
stroke-linecap:round; stroke-linejoin:round;">
</g>
<g style="fill:#000000; fill-opacity:1.0; 
stroke:#000000; stroke-width:0; stroke-opacity:1; 
stroke-linecap:round; stroke-linejoin:round;">
<circle cx="60133.9" cy="7903.54" r="393.701" /> 
</g>
<g style="fill:#000000; fill-opacity:1.0; 
stroke:#000000; stroke-width:39.3701; stroke-opacity:1; 
stroke-linecap:round; stroke-linejoin:round;">
</g>
<g style="fill:#000000; fill-opacity:1.0; 
stroke:#000000; stroke-width:0; stroke-opacity:1; 
stroke-linecap:round; stroke-linejoin:round;">
<circle cx="60133.9" cy="6903.54" r="393.701" /> 
</g>
<g style="fill:#000000; fill-opacity:1.0; 
stroke:#000000; stroke-width:39.3701; stroke-opacity:1; 
stroke-linecap:round; stroke-linejoin:round;">
</g>
<g style="fill:#000000; fill-opacity:1.0; 
stroke:#000000; stroke-width:0; stroke-opacity:1; 
stroke-linecap:round; stroke-linejoin:round;">
<circle cx="60133.9" cy="5903.54" r="393.701" /> 
</g>
<g style="fill:#000000; fill-opacity:1.0; 
stroke:#000000; stroke-width:39.3701; stroke-opacity:1; 
stroke-linecap:round; stroke-linejoin:round;">
</g>
<g style="fill:#000000; fill-opacity:1.0; 
stroke:#000000; stroke-width:0; stroke-opacity:1; 
stroke-linecap:round; stroke-linejoin:round;">
<circle cx="60133.9" cy="4903.54" r="393.701" /> 
</g>
<g style="fill:#000000; fill-opacity:1.0; 
stroke:#000000; stroke-width:39.3701; stroke-opacity:1; 
stroke-linecap:round; stroke-linejoin:round;">
</g>
<g style="fill:#000000; fill-opacity:1.0; 
stroke:#000000; stroke-width:0; stroke-opacity:1; 
stroke-linecap:round; stroke-linejoin:round;">
<circle cx="60133.9" cy="3903.54" r="393.701" /> 
</g>
<g style="fill:#000000; fill-opacity:1.0; 
stroke:#000000; stroke-width:39.3701; stroke-opacity:1; 
stroke-linecap:round; stroke-linejoin:round;">
</g>
<g style="fill:#000000; fill-opacity:1.0; 
stroke:#000000; stroke-width:0; stroke-opacity:1; 
stroke-linecap:round; stroke-linejoin:round;">
<circle cx="60133.9" cy="2903.54" r="393.701" /> 
</g>
<g style="fill:#000000; fill-opacity:1.0; 
stroke:#000000; stroke-width:39.3701; stroke-opacity:1; 
stroke-linecap:round; stroke-linejoin:round;">
</g>
<g style="fill:#000000; fill-opacity:1.0; 
stroke:#000000; stroke-width:0; stroke-opacity:1; 
stroke-linecap:round; stroke-linejoin:round;">
<circle cx="60133.9" cy="1903.54" r="393.701" /> 
</g>
<g style="fill:#000000; fill-opacity:1.0; 
stroke:#000000; stroke-width:39.3701; stroke-opacity:1; 
stroke-linecap:round; stroke-linejoin:round;">
</g>
<g >
</g>
<g style="fill:#000000; fill-opacity:1.0; 
stroke:#000000; stroke-width:39.3701; stroke-opacity:1; 
stroke-linecap:round; stroke-linejoin:round;">
</g>
<g style="fill:#000000; fill-opacity:1.0; 
stroke:#000000; stroke-width:669.291; stroke-opacity:1; 
stroke-linecap:round; stroke-linejoin:round;">
</g>
<g style="fill:#000000; fill-opacity:0.0; 
stroke:#000000; stroke-width:669.291; stroke-opacity:1; 
stroke-linecap:round; stroke-linejoin:round;">
<path d="M77015 10029
L77015 9911
" />
</g>
<g style="fill:#000000; fill-opacity:0.0; 
stroke:#000000; stroke-width:0; stroke-opacity:1; 
stroke-linecap:round; stroke-linejoin:round;">
</g>
<g style="fill:#000000; fill-opacity:1.0; 
stroke:#000000; stroke-width:0; stroke-opacity:1; 
stroke-linecap:round; stroke-linejoin:round;">
<path style="fill:#000000; fill-opacity:1.0; 
stroke:#000000; stroke-width:0; stroke-opacity:1; 
stroke-linecap:round; stroke-linejoin:round;fill-rule:evenodd;"
d="M 78245.9,9577.25
78255.4,9578.66
78264.8,9581.01
78273.9,9584.26
78282.6,9588.39
78290.9,9593.36
78298.7,9599.11
78305.8,9605.6
78312.3,9612.76
78318.1,9620.51
78323,9628.8
78327.1,9637.53
78330.4,9646.63
78332.7,9656
78334.2,9665.55
78334.6,9675.2
78334.6,10265.7
78334.2,10275.4
78332.7,10285
78330.4,10294.3
78327.1,10303.4
78323,10312.1
78318.1,10320.4
78312.3,10328.2
78305.8,10335.3
78298.7,10341.8
78290.9,10347.6
78282.6,10352.6
78273.9,10356.7
78264.8,10359.9
78255.4,10362.3
78245.9,10363.7
78236.2,10364.2
77763.8,10364.2
77754.1,10363.7
77744.6,10362.3
77735.2,10359.9
77726.1,10356.7
77717.4,10352.6
77709.1,10347.6
77701.3,10341.8
77694.2,10335.3
77687.7,10328.2
77681.9,10320.4
77677,10312.1
77672.8,10303.4
77669.6,10294.3
77667.2,10285
77665.8,10275.4
77665.3,10265.7
77665.3,9675.2
77665.8,9665.55
77667.2,9656
77669.6,9646.63
77672.8,9637.53
77677,9628.8
77681.9,9620.51
77687.7,9612.76
77694.2,9605.6
77701.3,9599.11
77709.1,9593.36
77717.4,9588.39
77726.1,9584.26
77735.2,9581.01
77744.6,9578.66
77754.1,9577.25
77763.8,9576.77
78236.2,9576.77
Z" /> 
</g>
<g >
</g>
<g >
</g>
<g >
</g>
<g >
</g>
<g style="fill:#000000; fill-opacity:1.0; 
stroke:#000000; stroke-width:0; stroke-opacity:1; 
stroke-linecap:round; stroke-linejoin:round;">
<path style="fill:#000000; fill-opacity:1.0; 
stroke:#000000; stroke-width:0; stroke-opacity:1; 
stroke-linecap:round; stroke-linejoin:round;fill-rule:evenodd;"
d="M 82182.9,9577.25
82192.4,9578.66
82201.8,9581.01
82210.9,9584.26
82219.6,9588.39
82227.9,9593.36
82235.7,9599.11
82242.8,9605.6
82249.3,9612.76
82255.1,9620.51
82260,9628.8
82264.2,9637.53
82267.4,9646.63
82269.8,9656
82271.2,9665.55
82271.6,9675.2
82271.6,10265.7
82271.2,10275.4
82269.8,10285
82267.4,10294.3
82264.2,10303.4
82260,10312.1
82255.1,10320.4
82249.3,10328.2
82242.8,10335.3
82235.7,10341.8
82227.9,10347.6
82219.6,10352.6
82210.9,10356.7
82201.8,10359.9
82192.4,10362.3
82182.9,10363.7
82173.2,10364.2
81700.8,10364.2
81691.1,10363.7
81681.6,10362.3
81672.2,10359.9
81663.1,10356.7
81654.4,10352.6
81646.1,10347.6
81638.3,10341.8
81631.2,10335.3
81624.7,10328.2
81618.9,10320.4
81614,10312.1
81609.8,10303.4
81606.6,10294.3
81604.2,10285
81602.8,10275.4
81602.4,10265.7
81602.4,9675.2
81602.8,9665.55
81604.2,9656
81606.6,9646.63
81609.8,9637.53
81614,9628.8
81618.9,9620.51
81624.7,9612.76
81631.2,9605.6
81638.3,9599.11
81646.1,9593.36
81654.4,9588.39
81663.1,9584.26
81672.2,9581.01
81681.6,9578.66
81691.1,9577.25
81700.8,9576.77
82173.2,9576.77
Z" /> 
</g>
<g style="fill:#000000; fill-opacity:1.0; 
stroke:#000000; stroke-width:669.291; stroke-opacity:1; 
stroke-linecap:round; stroke-linejoin:round;">
</g>
<g style="fill:#000000; fill-opacity:0.0; 
stroke:#000000; stroke-width:669.291; stroke-opacity:1; 
stroke-linecap:round; stroke-linejoin:round;">
<path d="M80952 10029
L80952 9911
" />
</g>
<g >
</g>
<g style="fill:#000000; fill-opacity:0.0; 
stroke:#000000; stroke-width:669.291; stroke-opacity:1; 
stroke-linecap:round; stroke-linejoin:round;">
</g>
<g style="fill:#000000; fill-opacity:0.0; 
stroke:#000000; stroke-width:0; stroke-opacity:1; 
stroke-linecap:round; stroke-linejoin:round;">
</g>
<g style="fill:#000000; fill-opacity:1.0; 
stroke:#000000; stroke-width:0; stroke-opacity:1; 
stroke-linecap:round; stroke-linejoin:round;">
<path style="fill:#000000; fill-opacity:1.0; 
stroke:#000000; stroke-width:0; stroke-opacity:1; 
stroke-linecap:round; stroke-linejoin:round;fill-rule:evenodd;"
d="M 63039.4,9478.35
63039.4,10265.7
62252,10265.7
62252,9478.35
Z" /> 
</g>
<g style="fill:#000000; fill-opacity:1.0; 
stroke:#000000; stroke-width:787.402; stroke-opacity:1; 
stroke-linecap:round; stroke-linejoin:round;">
</g>
<g style="fill:#000000; fill-opacity:0.0; 
stroke:#000000; stroke-width:787.402; stroke-opacity:1; 
stroke-linecap:round; stroke-linejoin:round;">
<path d="M62645 8872
L62645 8872
" />
<path d="M62645 7872
L62645 7872
" />
<path d="M62645 6872
L62645 6872
" />
</g>
<g >
</g>
<g >
</g>
<g >
</g>
<g >
</g>
<g >
</g>
<g >
</g>
<g >
</g>
<g >
</g>
<g >
</g>
<g >
</g>
<g >
</g>
<g style="fill:#000000; fill-opacity:0.0; 
stroke:#000000; stroke-width:787.402; stroke-opacity:1; 
stroke-linecap:round; stroke-linejoin:round;">
</g>
<g style="fill:#000000; fill-opacity:1.0; 
stroke:#000000; stroke-width:0; stroke-opacity:1; 
stroke-linecap:round; stroke-linejoin:round;">
<circle cx="82421.3" cy="5572.84" r="393.701" /> 
</g>
<g style="fill:#000000; fill-opacity:1.0; 
stroke:#000000; stroke-width:39.3701; stroke-opacity:1; 
stroke-linecap:round; stroke-linejoin:round;">
</g>
<g style="fill:#000000; fill-opacity:1.0; 
stroke:#000000; stroke-width:0; stroke-opacity:1; 
stroke-linecap:round; stroke-linejoin:round;">
<circle cx="82421.3" cy="4572.84" r="393.701" /> 
</g>
<g style="fill:#000000; fill-opacity:1.0; 
stroke:#000000; stroke-width:39.3701; stroke-opacity:1; 
stroke-linecap:round; stroke-linejoin:round;">
</g>
<g style="fill:#000000; fill-opacity:1.0; 
stroke:#000000; stroke-width:0; stroke-opacity:1; 
stroke-linecap:round; stroke-linejoin:round;">
<circle cx="82421.3" cy="3572.84" r="393.701" /> 
</g>
<g style="fill:#000000; fill-opacity:1.0; 
stroke:#000000; stroke-width:39.3701; stroke-opacity:1; 
stroke-linecap:round; stroke-linejoin:round;">
</g>
<g >
</g>
<g style="fill:#000000; fill-opacity:1.0; 
stroke:#000000; stroke-width:39.3701; stroke-opacity:1; 
stroke-linecap:round; stroke-linejoin:round;">
</g>
<g style="fill:#000000; fill-opacity:1.0; 
stroke:#000000; stroke-width:0; stroke-opacity:1; 
stroke-linecap:round; stroke-linejoin:round;">
<circle cx="78787.4" cy="3572.84" r="334.646" /> 
</g>
<g style="fill:#000000; fill-opacity:1.0; 
stroke:#000000; stroke-width:39.3701; stroke-opacity:1; 
stroke-linecap:round; stroke-linejoin:round;">
</g>
<g style="fill:#000000; fill-opacity:1.0; 
stroke:#000000; stroke-width:0; stroke-opacity:1; 
stroke-linecap:round; stroke-linejoin:round;">
<circle cx="76228.3" cy="3572.84" r="334.646" /> 
</g>
<g style="fill:#000000; fill-opacity:1.0; 
stroke:#000000; stroke-width:39.3701; stroke-opacity:1; 
stroke-linecap:round; stroke-linejoin:round;">
</g>
<g style="fill:#000000; fill-opacity:1.0; 
stroke:#000000; stroke-width:0; stroke-opacity:1; 
stroke-linecap:round; stroke-linejoin:round;">
<circle cx="78787.4" cy="1801.18" r="334.646" /> 
</g>
<g style="fill:#000000; fill-opacity:1.0; 
stroke:#000000; stroke-width:39.3701; stroke-opacity:1; 
stroke-linecap:round; stroke-linejoin:round;">
</g>
<g style="fill:#000000; fill-opacity:1.0; 
stroke:#000000; stroke-width:0; stroke-opacity:1; 
stroke-linecap:round; stroke-linejoin:round;">
<circle cx="76228.3" cy="1801.18" r="334.646" /> 
</g>
<g style="fill:#000000; fill-opacity:1.0; 
stroke:#000000; stroke-width:39.3701; stroke-opacity:1; 
stroke-linecap:round; stroke-linejoin:round;">
</g>
<g >
</g>
<g style="fill:#000000; fill-opacity:1.0; 
stroke:#000000; stroke-width:39.3701; stroke-opacity:1; 
stroke-linecap:round; stroke-linejoin:round;">
</g>
<g style="fill:#000000; fill-opacity:1.0; 
stroke:#000000; stroke-width:0; stroke-opacity:1; 
stroke-linecap:round; stroke-linejoin:round;">
<circle cx="72291.3" cy="1801.18" r="334.646" /> 
</g>
<g style="fill:#000000; fill-opacity:1.0; 
stroke:#000000; stroke-width:39.3701; stroke-opacity:1; 
stroke-linecap:round; stroke-linejoin:round;">
</g>
<g style="fill:#000000; fill-opacity:1.0; 
stroke:#000000; stroke-width:0; stroke-opacity:1; 
stroke-linecap:round; stroke-linejoin:round;">
<circle cx="74850.4" cy="1801.18" r="334.646" /> 
</g>
<g style="fill:#000000; fill-opacity:1.0; 
stroke:#000000; stroke-width:39.3701; stroke-opacity:1; 
stroke-linecap:round; stroke-linejoin:round;">
</g>
<g style="fill:#000000; fill-opacity:1.0; 
stroke:#000000; stroke-width:0; stroke-opacity:1; 
stroke-linecap:round; stroke-linejoin:round;">
<circle cx="72291.3" cy="3572.84" r="334.646" /> 
</g>
<g style="fill:#000000; fill-opacity:1.0; 
stroke:#000000; stroke-width:39.3701; stroke-opacity:1; 
stroke-linecap:round; stroke-linejoin:round;">
</g>
<g style="fill:#000000; fill-opacity:1.0; 
stroke:#000000; stroke-width:0; stroke-opacity:1; 
stroke-linecap:round; stroke-linejoin:round;">
<circle cx="74850.4" cy="3572.84" r="334.646" /> 
</g>
<g style="fill:#000000; fill-opacity:1.0; 
stroke:#000000; stroke-width:39.3701; stroke-opacity:1; 
stroke-linecap:round; stroke-linejoin:round;">
</g>
<g >
</g>
<g >
</g>
<g style="fill:#000000; fill-opacity:1.0; 
stroke:#000000; stroke-width:39.3701; stroke-opacity:1; 
stroke-linecap:round; stroke-linejoin:round;">
</g>
<g style="fill:#000000; fill-opacity:1.0; 
stroke:#000000; stroke-width:0; stroke-opacity:1; 
stroke-linecap:round; stroke-linejoin:round;">
<circle cx="79476.4" cy="9970.47" r="393.701" /> 
</g>
<g style="fill:#000000; fill-opacity:1.0; 
stroke:#000000; stroke-width:39.3701; stroke-opacity:1; 
stroke-linecap:round; stroke-linejoin:round;">
</g>
<g style="fill:#000000; fill-opacity:1.0; 
stroke:#000000; stroke-width:0; stroke-opacity:1; 
stroke-linecap:round; stroke-linejoin:round;">
<circle cx="79476.4" cy="4301.18" r="393.701" /> 
</g>
<g style="fill:#000000; fill-opacity:1.0; 
stroke:#000000; stroke-width:39.3701; stroke-opacity:1; 
stroke-linecap:round; stroke-linejoin:round;">
</g>
<g style="fill:#000000; fill-opacity:1.0; 
stroke:#000000; stroke-width:0; stroke-opacity:1; 
stroke-linecap:round; stroke-linejoin:round;">
<circle cx="71385.8" cy="6879.92" r="393.701" /> 
</g>
<g style="fill:#000000; fill-opacity:1.0; 
stroke:#000000; stroke-width:39.3701; stroke-opacity:1; 
stroke-linecap:round; stroke-linejoin:round;">
</g>
<g style="fill:#000000; fill-opacity:1.0; 
stroke:#000000; stroke-width:0; stroke-opacity:1; 
stroke-linecap:round; stroke-linejoin:round;">
<circle cx="73787.4" cy="6879.92" r="393.701" /> 
</g>
<g style="fill:#000000; fill-opacity:1.0; 
stroke:#000000; stroke-width:39.3701; stroke-opacity:1; 
stroke-linecap:round; stroke-linejoin:round;">
</g>
<g >
</g>
<g style="fill:#000000; fill-opacity:1.0; 
stroke:#000000; stroke-width:39.3701; stroke-opacity:1; 
stroke-linecap:round; stroke-linejoin:round;">
</g>
<g style="fill:#000000; fill-opacity:1.0; 
stroke:#000000; stroke-width:196.85; stroke-opacity:1; 
stroke-linecap:round; stroke-linejoin:round;">
</g>
<g style="fill:#000000; fill-opacity:0.0; 
stroke:#000000; stroke-width:196.85; stroke-opacity:1; 
stroke-linecap:round; stroke-linejoin:round;">
<path d="M79476 9970
L79476 4301
" />
<path d="M79476 4301
L79476 4301
" />
<path d="M73787 6879
L71385 6879
" />
</g>
<g >
</g>
</g>
<g style="fill:#FFFFFF; fill-opacity:0.0; 
stroke:#FFFFFF; stroke-width:196.85; stroke-opacity:1; 
stroke-linecap:round; stroke-linejoin:round;">
</g>
<g style="fill:#FFFFFF; fill-opacity:1.0; 
stroke:#FFFFFF; stroke-width:0; stroke-opacity:1; 
stroke-linecap:round; stroke-linejoin:round;">
<circle cx="79476.4" cy="9970.47" r="196.85" /> 
</g>
<g style="fill:#FFFFFF; fill-opacity:1.0; 
stroke:#FFFFFF; stroke-width:39.3701; stroke-opacity:1; 
stroke-linecap:round; stroke-linejoin:round;">
</g>
<g style="fill:#FFFFFF; fill-opacity:1.0; 
stroke:#FFFFFF; stroke-width:0; stroke-opacity:1; 
stroke-linecap:round; stroke-linejoin:round;">
<circle cx="79476.4" cy="4301.18" r="196.85" /> 
</g>
<g style="fill:#FFFFFF; fill-opacity:1.0; 
stroke:#FFFFFF; stroke-width:39.3701; stroke-opacity:1; 
stroke-linecap:round; stroke-linejoin:round;">
</g>
<g style="fill:#FFFFFF; fill-opacity:1.0; 
stroke:#FFFFFF; stroke-width:0; stroke-opacity:1; 
stroke-linecap:round; stroke-linejoin:round;">
<circle cx="71385.8" cy="6879.92" r="196.85" /> 
</g>
<g style="fill:#FFFFFF; fill-opacity:1.0; 
stroke:#FFFFFF; stroke-width:39.3701; stroke-opacity:1; 
stroke-linecap:round; stroke-linejoin:round;">
</g>
<g style="fill:#FFFFFF; fill-opacity:1.0; 
stroke:#FFFFFF; stroke-width:0; stroke-opacity:1; 
stroke-linecap:round; stroke-linejoin:round;">
<circle cx="73787.4" cy="6879.92" r="196.85" /> 
</g>
<g style="fill:#FFFFFF; fill-opacity:1.0; 
stroke:#FFFFFF; stroke-width:39.3701; stroke-opacity:1; 
stroke-linecap:round; stroke-linejoin:round;">
</g>
<g style="fill:#FFFFFF; fill-opacity:1.0; 
stroke:#FFFFFF; stroke-width:0; stroke-opacity:1; 
stroke-linecap:round; stroke-linejoin:round;">
<circle cx="57787.4" cy="4950.79" r="150" /> 
</g>
<g style="fill:#FFFFFF; fill-opacity:1.0; 
stroke:#FFFFFF; stroke-width:39.3701; stroke-opacity:1; 
stroke-linecap:round; stroke-linejoin:round;">
</g>
<g style="fill:#FFFFFF; fill-opacity:1.0; 
stroke:#FFFFFF; stroke-width:0; stroke-opacity:1; 
stroke-linecap:round; stroke-linejoin:round;">
<circle cx="57787.4" cy="5950.79" r="150" /> 
</g>
<g style="fill:#FFFFFF; fill-opacity:1.0; 
stroke:#FFFFFF; stroke-width:39.3701; stroke-opacity:1; 
stroke-linecap:round; stroke-linejoin:round;">
</g>
<g style="fill:#FFFFFF; fill-opacity:1.0; 
stroke:#FFFFFF; stroke-width:0; stroke-opacity:1; 
stroke-linecap:round; stroke-linejoin:round;">
<circle cx="57787.4" cy="6950.79" r="150" /> 
</g>
<g style="fill:#FFFFFF; fill-opacity:1.0; 
stroke:#FFFFFF; stroke-width:39.3701; stroke-opacity:1; 
stroke-linecap:round; stroke-linejoin:round;">
</g>
<g style="fill:#FFFFFF; fill-opacity:1.0; 
stroke:#FFFFFF; stroke-width:0; stroke-opacity:1; 
stroke-linecap:round; stroke-linejoin:round;">
<circle cx="57787.4" cy="7950.79" r="150" /> 
</g>
<g style="fill:#FFFFFF; fill-opacity:1.0; 
stroke:#FFFFFF; stroke-width:39.3701; stroke-opacity:1; 
stroke-linecap:round; stroke-linejoin:round;">
</g>
<g style="fill:#FFFFFF; fill-opacity:1.0; 
stroke:#FFFFFF; stroke-width:0; stroke-opacity:1; 
stroke-linecap:round; stroke-linejoin:round;">
<circle cx="57787.4" cy="8950.79" r="150" /> 
</g>
<g style="fill:#FFFFFF; fill-opacity:1.0; 
stroke:#FFFFFF; stroke-width:39.3701; stroke-opacity:1; 
stroke-linecap:round; stroke-linejoin:round;">
</g>
<g style="fill:#FFFFFF; fill-opacity:1.0; 
stroke:#FFFFFF; stroke-width:0; stroke-opacity:1; 
stroke-linecap:round; stroke-linejoin:round;">
<circle cx="60133.9" cy="10903.5" r="150" /> 
</g>
<g style="fill:#FFFFFF; fill-opacity:1.0; 
stroke:#FFFFFF; stroke-width:39.3701; stroke-opacity:1; 
stroke-linecap:round; stroke-linejoin:round;">
</g>
<g style="fill:#FFFFFF; fill-opacity:1.0; 
stroke:#FFFFFF; stroke-width:0; stroke-opacity:1; 
stroke-linecap:round; stroke-linejoin:round;">
<circle cx="60133.9" cy="9903.54" r="150" /> 
</g>
<g style="fill:#FFFFFF; fill-opacity:1.0; 
stroke:#FFFFFF; stroke-width:39.3701; stroke-opacity:1; 
stroke-linecap:round; stroke-linejoin:round;">
</g>
<g style="fill:#FFFFFF; fill-opacity:1.0; 
stroke:#FFFFFF; stroke-width:0; stroke-opacity:1; 
stroke-linecap:round; stroke-linejoin:round;">
<circle cx="60133.9" cy="8903.54" r="150" /> 
</g>
<g style="fill:#FFFFFF; fill-opacity:1.0; 
stroke:#FFFFFF; stroke-width:39.3701; stroke-opacity:1; 
stroke-linecap:round; stroke-linejoin:round;">
</g>
<g style="fill:#FFFFFF; fill-opacity:1.0; 
stroke:#FFFFFF; stroke-width:0; stroke-opacity:1; 
stroke-linecap:round; stroke-linejoin:round;">
<circle cx="60133.9" cy="7903.54" r="150" /> 
</g>
<g style="fill:#FFFFFF; fill-opacity:1.0; 
stroke:#FFFFFF; stroke-width:39.3701; stroke-opacity:1; 
stroke-linecap:round; stroke-linejoin:round;">
</g>
<g style="fill:#FFFFFF; fill-opacity:1.0; 
stroke:#FFFFFF; stroke-width:0; stroke-opacity:1; 
stroke-linecap:round; stroke-linejoin:round;">
<circle cx="60133.9" cy="6903.54" r="150" /> 
</g>
<g style="fill:#FFFFFF; fill-opacity:1.0; 
stroke:#FFFFFF; stroke-width:39.3701; stroke-opacity:1; 
stroke-linecap:round; stroke-linejoin:round;">
</g>
<g style="fill:#FFFFFF; fill-opacity:1.0; 
stroke:#FFFFFF; stroke-width:0; stroke-opacity:1; 
stroke-linecap:round; stroke-linejoin:round;">
<circle cx="60133.9" cy="5903.54" r="150" /> 
</g>
<g style="fill:#FFFFFF; fill-opacity:1.0; 
stroke:#FFFFFF; stroke-width:39.3701; stroke-opacity:1; 
stroke-linecap:round; stroke-linejoin:round;">
</g>
<g style="fill:#FFFFFF; fill-opacity:1.0; 
stroke:#FFFFFF; stroke-width:0; stroke-opacity:1; 
stroke-linecap:round; stroke-linejoin:round;">
<circle cx="60133.9" cy="4903.54" r="150" /> 
</g>
<g style="fill:#FFFFFF; fill-opacity:1.0; 
stroke:#FFFFFF; stroke-width:39.3701; stroke-opacity:1; 
stroke-linecap:round; stroke-linejoin:round;">
</g>
<g style="fill:#FFFFFF; fill-opacity:1.0; 
stroke:#FFFFFF; stroke-width:0; stroke-opacity:1; 
stroke-linecap:round; stroke-linejoin:round;">
<circle cx="60133.9" cy="3903.54" r="150" /> 
</g>
<g style="fill:#FFFFFF; fill-opacity:1.0; 
stroke:#FFFFFF; stroke-width:39.3701; stroke-opacity:1; 
stroke-linecap:round; stroke-linejoin:round;">
</g>
<g style="fill:#FFFFFF; fill-opacity:1.0; 
stroke:#FFFFFF; stroke-width:0; stroke-opacity:1; 
stroke-linecap:round; stroke-linejoin:round;">
<circle cx="60133.9" cy="2903.54" r="150" /> 
</g>
<g style="fill:#FFFFFF; fill-opacity:1.0; 
stroke:#FFFFFF; stroke-width:39.3701; stroke-opacity:1; 
stroke-linecap:round; stroke-linejoin:round;">
</g>
<g style="fill:#FFFFFF; fill-opacity:1.0; 
stroke:#FFFFFF; stroke-width:0; stroke-opacity:1; 
stroke-linecap:round; stroke-linejoin:round;">
<circle cx="60133.9" cy="1903.54" r="150" /> 
</g>
<g style="fill:#FFFFFF; fill-opacity:1.0; 
stroke:#FFFFFF; stroke-width:39.3701; stroke-opacity:1; 
stroke-linecap:round; stroke-linejoin:round;">
</g>
<g style="fill:#FFFFFF; fill-opacity:1.0; 
stroke:#FFFFFF; stroke-width:0; stroke-opacity:1; 
stroke-linecap:round; stroke-linejoin:round;">
<circle cx="77015.7" cy="9970.47" r="196.85" /> 
</g>
<g style="fill:#FFFFFF; fill-opacity:1.0; 
stroke:#FFFFFF; stroke-width:39.3701; stroke-opacity:1; 
stroke-linecap:round; stroke-linejoin:round;">
</g>
<g style="fill:#FFFFFF; fill-opacity:1.0; 
stroke:#FFFFFF; stroke-width:0; stroke-opacity:1; 
stroke-linecap:round; stroke-linejoin:round;">
<circle cx="78000" cy="9970.47" r="196.85" /> 
</g>
<g style="fill:#FFFFFF; fill-opacity:1.0; 
stroke:#FFFFFF; stroke-width:39.3701; stroke-opacity:1; 
stroke-linecap:round; stroke-linejoin:round;">
</g>
<g style="fill:#FFFFFF; fill-opacity:1.0; 
stroke:#FFFFFF; stroke-width:0; stroke-opacity:1; 
stroke-linecap:round; stroke-linejoin:round;">
<circle cx="81937" cy="9970.47" r="196.85" /> 
</g>
<g style="fill:#FFFFFF; fill-opacity:1.0; 
stroke:#FFFFFF; stroke-width:39.3701; stroke-opacity:1; 
stroke-linecap:round; stroke-linejoin:round;">
</g>
<g style="fill:#FFFFFF; fill-opacity:1.0; 
stroke:#FFFFFF; stroke-width:0; stroke-opacity:1; 
stroke-linecap:round; stroke-linejoin:round;">
<circle cx="80952.7" cy="9970.47" r="196.85" /> 
</g>
<g style="fill:#FFFFFF; fill-opacity:1.0; 
stroke:#FFFFFF; stroke-width:39.3701; stroke-opacity:1; 
stroke-linecap:round; stroke-linejoin:round;">
</g>
<g style="fill:#FFFFFF; fill-opacity:1.0; 
stroke:#FFFFFF; stroke-width:0; stroke-opacity:1; 
stroke-linecap:round; stroke-linejoin:round;">
<circle cx="62645.7" cy="9872.05" r="196.85" /> 
</g>
<g style="fill:#FFFFFF; fill-opacity:1.0; 
stroke:#FFFFFF; stroke-width:39.3701; stroke-opacity:1; 
stroke-linecap:round; stroke-linejoin:round;">
</g>
<g style="fill:#FFFFFF; fill-opacity:1.0; 
stroke:#FFFFFF; stroke-width:0; stroke-opacity:1; 
stroke-linecap:round; stroke-linejoin:round;">
<circle cx="62645.7" cy="8872.05" r="196.85" /> 
</g>
<g style="fill:#FFFFFF; fill-opacity:1.0; 
stroke:#FFFFFF; stroke-width:39.3701; stroke-opacity:1; 
stroke-linecap:round; stroke-linejoin:round;">
</g>
<g style="fill:#FFFFFF; fill-opacity:1.0; 
stroke:#FFFFFF; stroke-width:0; stroke-opacity:1; 
stroke-linecap:round; stroke-linejoin:round;">
<circle cx="62645.7" cy="7872.05" r="196.85" /> 
</g>
<g style="fill:#FFFFFF; fill-opacity:1.0; 
stroke:#FFFFFF; stroke-width:39.3701; stroke-opacity:1; 
stroke-linecap:round; stroke-linejoin:round;">
</g>
<g style="fill:#FFFFFF; fill-opacity:1.0; 
stroke:#FFFFFF; stroke-width:0; stroke-opacity:1; 
stroke-linecap:round; stroke-linejoin:round;">
<circle cx="62645.7" cy="6872.05" r="196.85" /> 
</g>
<g style="fill:#FFFFFF; fill-opacity:1.0; 
stroke:#FFFFFF; stroke-width:39.3701; stroke-opacity:1; 
stroke-linecap:round; stroke-linejoin:round;">
</g>
<g style="fill:#FFFFFF; fill-opacity:1.0; 
stroke:#FFFFFF; stroke-width:0; stroke-opacity:1; 
stroke-linecap:round; stroke-linejoin:round;">
<circle cx="82421.3" cy="5572.84" r="150" /> 
</g>
<g style="fill:#FFFFFF; fill-opacity:1.0; 
stroke:#FFFFFF; stroke-width:39.3701; stroke-opacity:1; 
stroke-linecap:round; stroke-linejoin:round;">
</g>
<g style="fill:#FFFFFF; fill-opacity:1.0; 
stroke:#FFFFFF; stroke-width:0; stroke-opacity:1; 
stroke-linecap:round; stroke-linejoin:round;">
<circle cx="82421.3" cy="4572.84" r="150" /> 
</g>
<g style="fill:#FFFFFF; fill-opacity:1.0; 
stroke:#FFFFFF; stroke-width:39.3701; stroke-opacity:1; 
stroke-linecap:round; stroke-linejoin:round;">
</g>
<g style="fill:#FFFFFF; fill-opacity:1.0; 
stroke:#FFFFFF; stroke-width:0; stroke-opacity:1; 
stroke-linecap:round; stroke-linejoin:round;">
<circle cx="82421.3" cy="3572.84" r="150" /> 
</g>
<g style="fill:#FFFFFF; fill-opacity:1.0; 
stroke:#FFFFFF; stroke-width:39.3701; stroke-opacity:1; 
stroke-linecap:round; stroke-linejoin:round;">
</g>
<g style="fill:#FFFFFF; fill-opacity:1.0; 
stroke:#FFFFFF; stroke-width:0; stroke-opacity:1; 
stroke-linecap:round; stroke-linejoin:round;">
<circle cx="78787.4" cy="3572.84" r="196.85" /> 
</g>
<g style="fill:#FFFFFF; fill-opacity:1.0; 
stroke:#FFFFFF; stroke-width:39.3701; stroke-opacity:1; 
stroke-linecap:round; stroke-linejoin:round;">
</g>
<g style="fill:#FFFFFF; fill-opacity:1.0; 
stroke:#FFFFFF; stroke-width:0; stroke-opacity:1; 
stroke-linecap:round; stroke-linejoin:round;">
<circle cx="76228.3" cy="3572.84" r="196.85" /> 
</g>
<g style="fill:#FFFFFF; fill-opacity:1.0; 
stroke:#FFFFFF; stroke-width:39.3701; stroke-opacity:1; 
stroke-linecap:round; stroke-linejoin:round;">
</g>
<g style="fill:#FFFFFF; fill-opacity:1.0; 
stroke:#FFFFFF; stroke-width:0; stroke-opacity:1; 
stroke-linecap:round; stroke-linejoin:round;">
<circle cx="78787.4" cy="1801.18" r="196.85" /> 
</g>
<g style="fill:#FFFFFF; fill-opacity:1.0; 
stroke:#FFFFFF; stroke-width:39.3701; stroke-opacity:1; 
stroke-linecap:round; stroke-linejoin:round;">
</g>
<g style="fill:#FFFFFF; fill-opacity:1.0; 
stroke:#FFFFFF; stroke-width:0; stroke-opacity:1; 
stroke-linecap:round; stroke-linejoin:round;">
<circle cx="76228.3" cy="1801.18" r="196.85" /> 
</g>
<g style="fill:#FFFFFF; fill-opacity:1.0; 
stroke:#FFFFFF; stroke-width:39.3701; stroke-opacity:1; 
stroke-linecap:round; stroke-linejoin:round;">
</g>
<g style="fill:#FFFFFF; fill-opacity:1.0; 
stroke:#FFFFFF; stroke-width:0; stroke-opacity:1; 
stroke-linecap:round; stroke-linejoin:round;">
<circle cx="72291.3" cy="1801.18" r="196.85" /> 
</g>
<g style="fill:#FFFFFF; fill-opacity:1.0; 
stroke:#FFFFFF; stroke-width:39.3701; stroke-opacity:1; 
stroke-linecap:round; stroke-linejoin:round;">
</g>
<g style="fill:#FFFFFF; fill-opacity:1.0; 
stroke:#FFFFFF; stroke-width:0; stroke-opacity:1; 
stroke-linecap:round; stroke-linejoin:round;">
<circle cx="74850.4" cy="1801.18" r="196.85" /> 
</g>
<g style="fill:#FFFFFF; fill-opacity:1.0; 
stroke:#FFFFFF; stroke-width:39.3701; stroke-opacity:1; 
stroke-linecap:round; stroke-linejoin:round;">
</g>
<g style="fill:#FFFFFF; fill-opacity:1.0; 
stroke:#FFFFFF; stroke-width:0; stroke-opacity:1; 
stroke-linecap:round; stroke-linejoin:round;">
<circle cx="72291.3" cy="3572.84" r="196.85" /> 
</g>
<g style="fill:#FFFFFF; fill-opacity:1.0; 
stroke:#FFFFFF; stroke-width:39.3701; stroke-opacity:1; 
stroke-linecap:round; stroke-linejoin:round;">
</g>
<g style="fill:#FFFFFF; fill-opacity:1.0; 
stroke:#FFFFFF; stroke-width:0; stroke-opacity:1; 
stroke-linecap:round; stroke-linejoin:round;">
<circle cx="74850.4" cy="3572.84" r="196.85" /> 
</g>
<g style="fill:#FFFFFF; fill-opacity:1.0; 
stroke:#FFFFFF; stroke-width:39.3701; stroke-opacity:1; 
stroke-linecap:round; stroke-linejoin:round;">
</g>
<g style="fill:#000000; fill-opacity:1.0; 
stroke:#000000; stroke-width:39.3701; stroke-opacity:1; 
stroke-linecap:round; stroke-linejoin:round;">
</g>
<g style="fill:#000000; fill-opacity:1.0; 
stroke:#000000; stroke-width:47.2441; stroke-opacity:1; 
stroke-linecap:round; stroke-linejoin:round;">
</g>
<g style="fill:#000000; fill-opacity:0.0; 
stroke:#000000; stroke-width:47.2441; stroke-opacity:1; 
stroke-linecap:round; stroke-linejoin:round;">
<path d="M58511 9675
L58511 4163
" />
<path d="M58511 9675
L52606 9675
" />
<path d="M52606 9675
L52606 4163
" />
<path d="M52606 4163
L58511 4163
" />
</g>
<g style="fill:#000000; fill-opacity:0.0; 
stroke:#000000; stroke-width:19.685; stroke-opacity:1; 
stroke-linecap:round; stroke-linejoin:round;">
<path d="M73149 6801
L71826 6801
" />
<path d="M73149 6053
L73149 6801
" />
<path d="M71826 6053
L73149 6053
" />
<path d="M71826 6801
L71826 6053
" />
<path d="M71011 7706
L71011 10954
" />
<path d="M71011 10954
L64122 10954
" />
<path d="M64122 10954
L63728 10954
" />
<path d="M63728 10954
L63728 1210
" />
<path d="M63728 1210
L71011 1210
" />
<path d="M71011 1210
L71011 7706
" />
</g>
<g style="fill:#000000; fill-opacity:0.0; 
stroke:#000000; stroke-width:60; stroke-opacity:1; 
stroke-linecap:round; stroke-linejoin:round;">
<path d="M70525 10809
L64225 10809
" />
<path d="M64225 10809
L64225 7859
" />
<path d="M70525 10809
L70525 7909
" />
<path d="M64223 10816
L70522 8533
" />
<path d="M70522 10816
L64223 8533
" />
<path d="M70522 8533
L64223 8533
" />
</g>
<g style="fill:#000000; fill-opacity:0.0; 
stroke:#000000; stroke-width:47.2441; stroke-opacity:1; 
stroke-linecap:round; stroke-linejoin:round;">
<path d="M60677 11446
L60677 1210
" />
<path d="M60677 1210
L54377 1210
" />
<path d="M54377 1210
L54377 11446
" />
<path d="M54377 11446
L60677 11446
" />
</g>
<g style="fill:#000000; fill-opacity:0.0; 
stroke:#000000; stroke-width:19.685; stroke-opacity:1; 
stroke-linecap:round; stroke-linejoin:round;">
<path d="M75834 10797
L79181 10797
" />
<path d="M75834 8907
L75834 10797
" />
<path d="M79181 8907
L75834 8907
" />
<path d="M79181 10797
L79181 8907
" />
<path d="M74897 6438
L74015 6438
" />
<path d="M74015 6438
L74015 4643
" />
<path d="M74015 4643
L74897 4643
" />
<path d="M74897 4643
L74897 6438
" />
<path d="M61090 2517
L61838 2517
" />
<path d="M61838 2517
L61838 3840
" />
<path d="M61838 3840
L61090 3840
" />
<path d="M61090 3840
L61090 2517
" />
<path d="M62271 3815
L62271 2493
" />
<path d="M63019 3815
L62271 3815
" />
<path d="M63019 2493
L63019 3815
" />
<path d="M62271 2493
L63019 2493
" />
<path d="M83118 10797
L83118 8907
" />
<path d="M83118 8907
L79771 8907
" />
<path d="M79771 8907
L79771 10797
" />
<path d="M79771 10797
L83118 10797
" />
<path d="M63354 10580
L63354 6171
" />
<path d="M63354 6171
L61937 6171
" />
<path d="M61937 6171
L61937 10580
" />
<path d="M61937 10580
L63354 10580
" />
<path d="M76129 4950
L77507 4950
" />
<path d="M76129 6289
L76129 4950
" />
<path d="M77507 6289
L76129 6289
" />
<path d="M77507 4950
L77507 6289
" />
<path d="M76129 8572
L76129 7234
" />
<path d="M76129 7234
L77507 7234
" />
<path d="M77507 7234
L77507 8572
" />
<path d="M77507 8572
L76129 8572
" />
<path d="M80775 8564
L80775 7242
" />
<path d="M81523 8564
L80775 8564
" />
<path d="M81523 7242
L81523 8564
" />
<path d="M80775 7242
L81523 7242
" />
<path d="M79791 7242
L80539 7242
" />
<path d="M80539 7242
L80539 8564
" />
<path d="M80539 8564
L79791 8564
" />
<path d="M79791 8564
L79791 7242
" />
<path d="M79062 5076
L79062 6399
" />
<path d="M78314 5076
L79062 5076
" />
<path d="M78314 6399
L78314 5076
" />
<path d="M79062 6399
L78314 6399
" />
<path d="M71826 5167
L73149 5167
" />
<path d="M71826 5915
L71826 5167
" />
<path d="M73149 5915
L71826 5915
" />
<path d="M73149 5167
L73149 5915
" />
<path d="M73149 4281
L73149 5029
" />
<path d="M73149 5029
L71826 5029
" />
<path d="M71826 5029
L71826 4281
" />
<path d="M71826 4281
L73149 4281
" />
<path d="M78314 7242
L79062 7242
" />
<path d="M79062 7242
L79062 8564
" />
<path d="M79062 8564
L78314 8564
" />
<path d="M78314 8564
L78314 7242
" />
<path d="M73149 6938
L73149 7687
" />
<path d="M73149 7687
L71826 7687
" />
<path d="M71826 7687
L71826 6938
" />
<path d="M71826 6938
L73149 6938
" />
<path d="M61590 1230
L62913 1230
" />
<path d="M61590 1978
L61590 1230
" />
<path d="M62913 1978
L61590 1978
" />
<path d="M62913 1230
L62913 1978
" />
<path d="M79220 4005
L75795 4005
" />
<path d="M79220 4005
L79220 1368
" />
<path d="M79220 1368
L75795 1368
" />
<path d="M75795 1368
L75795 4005
" />
<path d="M71858 1368
L71858 4005
" />
<path d="M75283 1368
L71858 1368
" />
<path d="M75283 4005
L75283 1368
" />
<path d="M75283 4005
L71858 4005
" />
<path d="M75303 8061
L71838 8061
" />
<path d="M75303 10895
L75303 8061
" />
<path d="M71838 10895
L75303 10895
" />
<path d="M71838 8061
L71838 10895
" />
<g >
</g>
<g >
</g>
<g >
</g>
<g >
</g>
<g >
</g>
<g >
</g>
<g >
</g>
<g >
</g>
<g >
</g>
<g >
</g>
<g >
</g>
<g >
</g>
<g >
</g>
<g >
</g>
<g >
</g>
<g >
</g>
<g >
</g>
<g >
</g>
<g >
</g>
<g >
</g>
<g >
</g>
<g >
</g>
<g >
</g>
<g >
</g>
</g>
<g style="fill:#000000; fill-opacity:0.0; 
stroke:#000000; stroke-width:19.685; stroke-opacity:1; 
stroke-linecap:round; stroke-linejoin:round;">
</g>
<g style="fill:#000000; fill-opacity:0.0; 
stroke:#000000; stroke-width:59.0551; stroke-opacity:1; 
stroke-linecap:round; stroke-linejoin:round;">
<text x="67412.6" y="9832.68"
textLength="3188.88" font-size="524.934" lengthAdjust="spacingAndGlyphs"
text-anchor="middle" opacity="0">No Copper</text>
<path d="M65950 9813
L65950 9420
L66175 9813
L66175 9420
" />
<path d="M66418 9813
L66381 9795
L66362 9776
L66343 9738
L66343 9626
L66362 9588
L66381 9570
L66418 9551
L66475 9551
L66512 9570
L66531 9588
L66550 9626
L66550 9738
L66531 9776
L66512 9795
L66475 9813
L66418 9813
" />
<path d="M67243 9776
L67225 9795
L67168 9813
L67131 9813
L67075 9795
L67037 9757
L67018 9720
L67000 9645
L67000 9588
L67018 9513
L67037 9476
L67075 9438
L67131 9420
L67168 9420
L67225 9438
L67243 9457
" />
<path d="M67468 9813
L67431 9795
L67412 9776
L67393 9738
L67393 9626
L67412 9588
L67431 9570
L67468 9551
L67525 9551
L67562 9570
L67581 9588
L67600 9626
L67600 9738
L67581 9776
L67562 9795
L67525 9813
L67468 9813
" />
<path d="M67768 9551
L67768 9945
" />
<path d="M67768 9570
L67806 9551
L67881 9551
L67918 9570
L67937 9588
L67956 9626
L67956 9738
L67937 9776
L67918 9795
L67881 9813
L67806 9813
L67768 9795
" />
<path d="M68125 9551
L68125 9945
" />
<path d="M68125 9570
L68162 9551
L68237 9551
L68274 9570
L68293 9588
L68312 9626
L68312 9738
L68293 9776
L68274 9795
L68237 9813
L68162 9813
L68125 9795
" />
<path d="M68631 9795
L68593 9813
L68518 9813
L68481 9795
L68462 9757
L68462 9607
L68481 9570
L68518 9551
L68593 9551
L68631 9570
L68649 9607
L68649 9645
L68462 9682
" />
<path d="M68818 9813
L68818 9551
" />
<path d="M68818 9626
L68837 9588
L68856 9570
L68893 9551
L68931 9551
" />
<g >
</g>
</g>
<g style="fill:#000000; fill-opacity:0.0; 
stroke:#000000; stroke-width:59.0551; stroke-opacity:1; 
stroke-linecap:round; stroke-linejoin:round;">
</g>
<g style="fill:#000000; fill-opacity:0.0; 
stroke:#000000; stroke-width:47.2441; stroke-opacity:1; 
stroke-linecap:round; stroke-linejoin:round;">
<path d="M54496 5816
L54496 5029
" />
<path d="M54496 5816
L53708 5816
" />
<circle cx="54496.1" cy="5816.93" r="39.3701" /> 
<circle cx="54496.1" cy="5816.93" r="88.0343" /> 
<circle cx="54496.1" cy="5816.93" r="124.499" /> 
<path d="M53708 5816
L53708 5935
" />
<path d="M53708 5935
L53551 5816
" />
<path d="M53551 5816
L53708 5698
" />
<path d="M53708 5698
L53708 5777
" />
<path d="M53708 5777
L53669 5856
" />
<path d="M53669 5856
L53629 5816
" />
<path d="M53629 5816
L53669 5777
" />
<path d="M54496 5029
L54614 5029
" />
<path d="M54614 5029
L54496 4911
" />
<path d="M54496 4911
L54377 5029
" />
<path d="M54377 5029
L54456 5029
" />
<path d="M54456 5029
L54535 4990
" />
<path d="M54535 4990
L54417 4990
" />
<path d="M54417 4990
L54496 4950
" />
<path d="M53629 5816
L53551 5816
" />
</g>
<g style="fill:#000000; fill-opacity:0.0; 
stroke:#000000; stroke-width:39.3701; stroke-opacity:1; 
stroke-linecap:round; stroke-linejoin:round;">
<path d="M72881 6663
L72094 6663
" />
<path d="M72881 6190
L72881 6663
" />
<path d="M72094 6190
L72881 6190
" />
<path d="M72094 6663
L72094 6190
" />
</g>
<g style="fill:#000000; fill-opacity:0.0; 
stroke:#000000; stroke-width:19.685; stroke-opacity:1; 
stroke-linecap:round; stroke-linejoin:round;">
<path d="M64220 10816
L64220 1368
" />
<path d="M64223 1368
L70522 1368
" />
<path d="M70522 1368
L70522 10816
" />
<path d="M70522 10816
L64223 10816
" />
</g>
<g style="fill:#000000; fill-opacity:0.0; 
stroke:#000000; stroke-width:47.2441; stroke-opacity:1; 
stroke-linecap:round; stroke-linejoin:round;">
<path d="M56503 3218
L56503 2037
" />
<path d="M56503 2037
L55322 2037
" />
<circle cx="56503.9" cy="2037.4" r="88.0343" /> 
<circle cx="56503.9" cy="2037.4" r="55.6776" /> 
<path d="M56503 3218
L56543 3179
" />
<path d="M56543 3179
L56622 3100
" />
<path d="M56622 3100
L56425 3100
" />
<path d="M56425 3100
L56385 3100
" />
<path d="M56385 3100
L56503 3218
" />
<path d="M56543 3139
L56464 3139
" />
<path d="M55322 2037
L55440 2155
" />
<path d="M55440 2155
L55440 1919
" />
<path d="M55440 1919
L55322 2037
" />
<path d="M55322 2037
L55401 2076
" />
<path d="M55401 2076
L55401 1998
" />
<circle cx="56503.9" cy="2037.4" r="39.3701" /> 
</g>
<g style="fill:#000000; fill-opacity:0.0; 
stroke:#000000; stroke-width:39.3701; stroke-opacity:1; 
stroke-linecap:round; stroke-linejoin:round;">
<path d="M79145 8942
L78161 8942
" />
<path d="M79145 9927
L79145 8942
" />
<path d="M76031 10600
L78984 10600
" />
<path d="M76031 9104
L76031 10600
" />
<path d="M78984 9104
L76031 9104
" />
<path d="M78984 10600
L78984 9104
" />
<path d="M74771 6171
L74141 6171
" />
<path d="M74141 6171
L74141 4911
" />
<path d="M74141 4911
L74771 4911
" />
<path d="M74771 4911
L74771 6171
" />
<path d="M61700 3572
L61700 2903
" />
<path d="M61700 2903
L61582 2785
" />
<path d="M61582 2785
L61228 2785
" />
<path d="M61228 2785
L61228 3572
" />
<path d="M61228 3572
L61700 3572
" />
<path d="M62409 3548
L62881 3548
" />
<path d="M62409 2760
L62409 3548
" />
<path d="M62763 2760
L62409 2760
" />
<path d="M62881 2878
L62763 2760
" />
<path d="M62881 3548
L62881 2878
" />
<path d="M82921 10600
L82921 9104
" />
<path d="M82921 9104
L79968 9104
" />
<path d="M79968 9104
L79968 10600
" />
<path d="M79968 10600
L82921 10600
" />
<path d="M83082 9927
L83082 8942
" />
<path d="M83082 8942
L82098 8942
" />
<path d="M62895 10372
L62145 10372
" />
<path d="M62145 10372
L62145 6372
" />
<path d="M62145 6372
L63145 6372
" />
<path d="M63145 6372
L63145 10122
" />
<path d="M63145 10122
L62895 10372
" />
<path d="M76220 5344
L76220 5895
" />
<path d="M77417 5895
L76220 5895
" />
<path d="M77192 5344
L77417 5561
" />
<path d="M77417 5561
L77417 5895
" />
<path d="M77192 5344
L76228 5344
" />
<path d="M76444 8179
L77409 8179
" />
<path d="M76220 7962
L76220 7627
" />
<path d="M76444 8179
L76220 7962
" />
<path d="M76220 7627
L77417 7627
" />
<path d="M77417 8179
L77417 7627
" />
<path d="M80913 8297
L80913 7509
" />
<path d="M81385 8297
L80913 8297
" />
<path d="M81385 7509
L81385 8297
" />
<path d="M80913 7509
L81385 7509
" />
<path d="M79929 7509
L80401 7509
" />
<path d="M80401 7509
L80401 8297
" />
<path d="M80401 8297
L79929 8297
" />
<path d="M79929 8297
L79929 7509
" />
<path d="M78925 5344
L78925 6131
" />
<path d="M78452 5344
L78925 5344
" />
<path d="M78452 6131
L78452 5344
" />
<path d="M78925 6131
L78452 6131
" />
<path d="M72094 5305
L72881 5305
" />
<path d="M72094 5777
L72094 5305
" />
<path d="M72881 5777
L72094 5777
" />
<path d="M72881 5305
L72881 5777
" />
<path d="M72881 4419
L72881 4891
" />
<path d="M72881 4891
L72094 4891
" />
<path d="M72094 4891
L72094 4419
" />
<path d="M72094 4419
L72881 4419
" />
<path d="M78452 7509
L78925 7509
" />
<path d="M78925 7509
L78925 8297
" />
<path d="M78925 8297
L78452 8297
" />
<path d="M78452 8297
L78452 7509
" />
<path d="M72881 7076
L72881 7549
" />
<path d="M72881 7549
L72094 7549
" />
<path d="M72094 7549
L72094 7076
" />
<path d="M72094 7076
L72881 7076
" />
<path d="M61858 1368
L62645 1368
" />
<path d="M61858 1840
L61858 1368
" />
<path d="M62645 1840
L61858 1840
" />
<path d="M62645 1368
L62645 1840
" />
<path d="M78688 1505
L76326 1505
" />
<path d="M78688 3868
L76326 3868
" />
<path d="M76326 3868
L76326 1505
" />
<path d="M78688 3868
L78688 1505
" />
<path d="M74751 3868
L74751 1505
" />
<path d="M72389 3868
L72389 1505
" />
<path d="M74751 3868
L72389 3868
" />
<path d="M74751 1505
L72389 1505
" />
<path d="M72842 8553
L73236 8159
" />
<path d="M72842 8553
L72842 10797
" />
<path d="M73236 8159
L74299 8159
" />
<path d="M72842 10797
L74299 10797
" />
<path d="M74299 8159
L74299 10797
" />
<g >
</g>
<g >
</g>
<g >
</g>
<g >
</g>
<g >
</g>
<g >
</g>
<g >
</g>
<g >
</g>
<g >
</g>
<g >
</g>
<g >
</g>
<g >
</g>
<g >
</g>
<g >
</g>
<g >
</g>
<g >
</g>
<g >
</g>
<g >
</g>
<g >
</g>
<g >
</g>
<g >
</g>
<g >
</g>
<g >
</g>
<g >
</g>
</g>
<g style="fill:#000000; fill-opacity:0.0; 
stroke:#000000; stroke-width:39.3701; stroke-opacity:1; 
stroke-linecap:round; stroke-linejoin:round;">
</g>
<g style="fill:#000000; fill-opacity:0.0; 
stroke:#000000; stroke-width:59.0551; stroke-opacity:1; 
stroke-linecap:round; stroke-linejoin:round;">
<text x="55362.2" y="7391.73"
textLength="2420.23" font-size="524.934" lengthAdjust="spacingAndGlyphs"
text-anchor="middle" opacity="0">GY-271</text>
<path d="M54490 6998
L54452 6979
L54396 6979
L54340 6998
L54302 7035
L54284 7073
L54265 7148
L54265 7204
L54284 7279
L54302 7316
L54340 7354
L54396 7372
L54434 7372
L54490 7354
L54509 7335
L54509 7204
L54434 7204
" />
<path d="M54752 7185
L54752 7372
" />
<path d="M54621 6979
L54752 7185
L54884 6979
" />
<path d="M55015 7223
L55315 7223
" />
<path d="M55484 7016
L55502 6998
L55540 6979
L55634 6979
L55671 6998
L55690 7016
L55709 7054
L55709 7091
L55690 7148
L55465 7372
L55709 7372
" />
<path d="M55840 6979
L56102 6979
L55934 7372
" />
<path d="M56458 7372
L56233 7372
" />
<path d="M56346 7372
L56346 6979
L56308 7035
L56271 7073
L56233 7091
" />
<text x="54889.8" y="5177.17"
textLength="357.987" font-size="393.701" lengthAdjust="spacingAndGlyphs"
text-anchor="middle" opacity="0">X</text>
<path d="M54791 4867
L54988 5163
" />
<path d="M54988 4867
L54791 5163
" />
<text x="53708.7" y="6397.64"
textLength="329.865" font-size="393.701" lengthAdjust="spacingAndGlyphs"
text-anchor="middle" opacity="0">Y</text>
<path d="M53708 6242
L53708 6383
" />
<path d="M53610 6088
L53708 6242
L53807 6088
" />
<text x="54850.4" y="6358.27"
textLength="357.987" font-size="393.701" lengthAdjust="spacingAndGlyphs"
text-anchor="middle" opacity="0">Z</text>
<path d="M54751 6048
L54948 6048
L54751 6344
L54948 6344
" />
<text x="71503.9" y="6525.59"
textLength="1220.38" font-size="524.934" lengthAdjust="spacingAndGlyphs"
text-anchor="middle" opacity="0">10K</text>
<path d="M71232 6506
L71007 6506
" />
<path d="M71119 6506
L71119 6113
L71082 6169
L71044 6206
L71007 6225
" />
<path d="M71475 6113
L71513 6113
L71550 6131
L71569 6150
L71588 6188
L71607 6263
L71607 6356
L71588 6431
L71569 6469
L71550 6488
L71513 6506
L71475 6506
L71438 6488
L71419 6469
L71400 6431
L71382 6356
L71382 6263
L71400 6188
L71419 6150
L71438 6131
L71475 6113
" />
<path d="M71775 6506
L71775 6113
" />
<path d="M72000 6506
L71832 6281
" />
<path d="M72000 6113
L71775 6338
" />
</g>
<g style="fill:#000000; fill-opacity:0.0; 
stroke:#000000; stroke-width:31.4961; stroke-opacity:1; 
stroke-linecap:round; stroke-linejoin:round;">
<text x="72488.2" y="6525.59"
textLength="461.098" font-size="262.467" lengthAdjust="spacingAndGlyphs"
text-anchor="middle" opacity="0">R9</text>
<path d="M72455 6516
L72389 6422
" />
<path d="M72342 6516
L72342 6319
L72417 6319
L72436 6328
L72446 6338
L72455 6356
L72455 6384
L72446 6403
L72436 6413
L72417 6422
L72342 6422
" />
<path d="M72549 6516
L72586 6516
L72605 6506
L72614 6497
L72633 6469
L72642 6431
L72642 6356
L72633 6338
L72624 6328
L72605 6319
L72567 6319
L72549 6328
L72539 6338
L72530 6356
L72530 6403
L72539 6422
L72549 6431
L72567 6441
L72605 6441
L72624 6431
L72633 6422
L72642 6403
" />
</g>
<g style="fill:#000000; fill-opacity:0.0; 
stroke:#000000; stroke-width:59.0551; stroke-opacity:1; 
stroke-linecap:round; stroke-linejoin:round;">
<text x="57133.9" y="5738.19"
textLength="2796.85" font-size="524.934" lengthAdjust="spacingAndGlyphs"
text-anchor="middle" opacity="0">MPU9250</text>
<path d="M55849 5719
L55849 5325
L55980 5606
L56112 5325
L56112 5719
" />
<path d="M56299 5719
L56299 5325
L56449 5325
L56487 5344
L56505 5363
L56524 5400
L56524 5456
L56505 5494
L56487 5513
L56449 5531
L56299 5531
" />
<path d="M56693 5325
L56693 5644
L56712 5681
L56730 5700
L56768 5719
L56843 5719
L56880 5700
L56899 5681
L56918 5644
L56918 5325
" />
<path d="M57124 5719
L57199 5719
L57236 5700
L57255 5681
L57293 5625
L57311 5550
L57311 5400
L57293 5363
L57274 5344
L57236 5325
L57161 5325
L57124 5344
L57105 5363
L57086 5400
L57086 5494
L57105 5531
L57124 5550
L57161 5569
L57236 5569
L57274 5550
L57293 5531
L57311 5494
" />
<path d="M57461 5363
L57480 5344
L57518 5325
L57611 5325
L57649 5344
L57668 5363
L57686 5400
L57686 5438
L57668 5494
L57443 5719
L57686 5719
" />
<path d="M58043 5325
L57855 5325
L57836 5513
L57855 5494
L57893 5475
L57986 5475
L58024 5494
L58043 5513
L58061 5550
L58061 5644
L58043 5681
L58024 5700
L57986 5719
L57893 5719
L57855 5700
L57836 5681
" />
<path d="M58305 5325
L58343 5325
L58380 5344
L58399 5363
L58418 5400
L58436 5475
L58436 5569
L58418 5644
L58399 5681
L58380 5700
L58343 5719
L58305 5719
L58268 5700
L58249 5681
L58230 5644
L58211 5569
L58211 5475
L58230 5400
L58249 5363
L58268 5344
L58305 5325
" />
<text x="55047.2" y="2185.04"
textLength="357.987" font-size="393.701" lengthAdjust="spacingAndGlyphs"
text-anchor="middle" opacity="0">X</text>
<path d="M54948 1875
L55145 2170
" />
<path d="M55145 1875
L54948 2170
" />
<text x="56189" y="2500"
textLength="357.987" font-size="393.701" lengthAdjust="spacingAndGlyphs"
text-anchor="middle" opacity="0">Z</text>
<path d="M56090 2190
L56287 2190
L56090 2485
L56287 2485
" />
<text x="56503.9" y="3641.73"
textLength="329.865" font-size="393.701" lengthAdjust="spacingAndGlyphs"
text-anchor="middle" opacity="0">Y</text>
<path d="M56503 3487
L56503 3627
" />
<path d="M56405 3332
L56503 3487
L56602 3332
" />
<text x="77606.3" y="11446.9"
textLength="2007.78" font-size="524.934" lengthAdjust="spacingAndGlyphs"
text-anchor="middle" opacity="0">VCHRG</text>
<path d="M76678 11034
L76809 11428
L76940 11034
" />
<path d="M77296 11390
L77278 11409
L77221 11428
L77184 11428
L77128 11409
L77090 11371
L77071 11334
L77053 11259
L77053 11203
L77071 11128
L77090 11090
L77128 11053
L77184 11034
L77221 11034
L77278 11053
L77296 11071
" />
<path d="M77465 11428
L77465 11034
" />
<path d="M77465 11221
L77690 11221
" />
<path d="M77690 11428
L77690 11034
" />
<path d="M78103 11428
L77971 11240
" />
<path d="M77878 11428
L77878 11034
L78028 11034
L78065 11053
L78084 11071
L78103 11109
L78103 11165
L78084 11203
L78065 11221
L78028 11240
L77878 11240
" />
<path d="M78478 11053
L78440 11034
L78384 11034
L78328 11053
L78290 11090
L78271 11128
L78253 11203
L78253 11259
L78271 11334
L78290 11371
L78328 11409
L78384 11428
L78421 11428
L78478 11409
L78496 11390
L78496 11259
L78421 11259
" />
<text x="77507.9" y="9576.77"
textLength="751.687" font-size="524.934" lengthAdjust="spacingAndGlyphs"
text-anchor="middle" opacity="0">J1</text>
<path d="M77376 9164
L77376 9445
L77357 9501
L77320 9539
L77264 9558
L77226 9558
" />
<path d="M77770 9558
L77545 9558
" />
<path d="M77657 9558
L77657 9164
L77620 9220
L77582 9258
L77545 9276
" />
<g transform="rotate(-90 73669.3 5344.49)">
<text x="73669.3" y="5541.34"
textLength="1895.29" font-size="524.934" lengthAdjust="spacingAndGlyphs"
text-anchor="middle" opacity="0">100nF</text>
</g>
<path d="M73847 5953
L73847 6178
" />
<path d="M73847 6066
L73453 6066
L73509 6103
L73547 6141
L73566 6178
" />
<path d="M73453 5710
L73453 5672
L73472 5635
L73491 5616
L73528 5597
L73603 5578
L73697 5578
L73772 5597
L73809 5616
L73828 5635
L73847 5672
L73847 5710
L73828 5747
L73809 5766
L73772 5785
L73697 5803
L73603 5803
L73528 5785
L73491 5766
L73472 5747
L73453 5710
" />
<path d="M73453 5335
L73453 5297
L73472 5260
L73491 5241
L73528 5222
L73603 5203
L73697 5203
L73772 5222
L73809 5241
L73828 5260
L73847 5297
L73847 5335
L73828 5372
L73809 5391
L73772 5410
L73697 5428
L73603 5428
L73528 5410
L73491 5391
L73472 5372
L73453 5335
" />
<path d="M73584 5035
L73847 5035
" />
<path d="M73622 5035
L73603 5016
L73584 4978
L73584 4922
L73603 4885
L73641 4866
L73847 4866
" />
<path d="M73641 4547
L73641 4678
" />
<path d="M73847 4678
L73453 4678
L73453 4491
" />
</g>
<g style="fill:#000000; fill-opacity:0.0; 
stroke:#000000; stroke-width:47.2441; stroke-opacity:1; 
stroke-linecap:round; stroke-linejoin:round;">
<g transform="rotate(-90 74456.7 5541.34)">
<text x="74456.7" y="5698.82"
textLength="691.695" font-size="419.947" lengthAdjust="spacingAndGlyphs"
text-anchor="middle" opacity="0">C1</text>
</g>
<path d="M74569 5593
L74584 5608
L74599 5653
L74599 5683
L74584 5728
L74554 5758
L74524 5773
L74464 5788
L74419 5788
L74359 5773
L74329 5758
L74299 5728
L74284 5683
L74284 5653
L74299 5608
L74314 5593
" />
<path d="M74599 5293
L74599 5473
" />
<path d="M74599 5383
L74284 5383
L74329 5413
L74359 5443
L74374 5473
" />
</g>
<g style="fill:#000000; fill-opacity:0.0; 
stroke:#000000; stroke-width:59.0551; stroke-opacity:1; 
stroke-linecap:round; stroke-linejoin:round;">
<g transform="rotate(-90 61464.6 4360.24)">
<text x="61464.6" y="4557.09"
textLength="1130.03" font-size="524.934" lengthAdjust="spacingAndGlyphs"
text-anchor="middle" opacity="0">LED</text>
</g>
<path d="M61642 4613
L61642 4800
L61248 4800
" />
<path d="M61436 4482
L61436 4350
" />
<path d="M61642 4294
L61642 4482
L61248 4482
L61248 4294
" />
<path d="M61642 4125
L61248 4125
L61248 4032
L61267 3975
L61305 3938
L61342 3919
L61417 3900
L61473 3900
L61548 3919
L61586 3938
L61623 3975
L61642 4032
L61642 4125
" />
</g>
<g style="fill:#000000; fill-opacity:0.0; 
stroke:#000000; stroke-width:31.4961; stroke-opacity:1; 
stroke-linecap:round; stroke-linejoin:round;">
<g transform="rotate(-90 61464.6 3179.13)">
<text x="61464.6" y="3277.56"
textLength="461.098" font-size="262.467" lengthAdjust="spacingAndGlyphs"
text-anchor="middle" opacity="0">D1</text>
</g>
<path d="M61553 3324
L61356 3324
L61356 3277
L61366 3249
L61384 3230
L61403 3221
L61441 3211
L61469 3211
L61506 3221
L61525 3230
L61544 3249
L61553 3277
L61553 3324
" />
<path d="M61553 3024
L61553 3136
" />
<path d="M61553 3080
L61356 3080
L61384 3099
L61403 3118
L61413 3136
" />
</g>
<g style="fill:#000000; fill-opacity:0.0; 
stroke:#000000; stroke-width:59.0551; stroke-opacity:1; 
stroke-linecap:round; stroke-linejoin:round;">
<g transform="rotate(-90 62645.7 4360.24)">
<text x="62645.7" y="4557.09"
textLength="1109.56" font-size="524.934" lengthAdjust="spacingAndGlyphs"
text-anchor="middle" opacity="0">LED</text>
</g>
<path d="M62823 4613
L62823 4800
L62430 4800
" />
<path d="M62617 4482
L62617 4350
" />
<path d="M62823 4294
L62823 4482
L62430 4482
L62430 4294
" />
<path d="M62823 4125
L62430 4125
L62430 4032
L62448 3975
L62486 3938
L62523 3919
L62598 3900
L62655 3900
L62730 3919
L62767 3938
L62805 3975
L62823 4032
L62823 4125
" />
</g>
<g style="fill:#000000; fill-opacity:0.0; 
stroke:#000000; stroke-width:31.4961; stroke-opacity:1; 
stroke-linecap:round; stroke-linejoin:round;">
<g transform="rotate(-90 62645.7 3154.53)">
<text x="62645.7" y="3252.95"
textLength="461.098" font-size="262.467" lengthAdjust="spacingAndGlyphs"
text-anchor="middle" opacity="0">D2</text>
</g>
<path d="M62734 3299
L62537 3299
L62537 3252
L62547 3224
L62565 3206
L62584 3196
L62622 3187
L62650 3187
L62687 3196
L62706 3206
L62725 3224
L62734 3252
L62734 3299
" />
<path d="M62556 3112
L62547 3102
L62537 3084
L62537 3037
L62547 3018
L62556 3009
L62575 2999
L62594 2999
L62622 3009
L62734 3121
L62734 2999
" />
</g>
<g style="fill:#000000; fill-opacity:0.0; 
stroke:#000000; stroke-width:59.0551; stroke-opacity:1; 
stroke-linecap:round; stroke-linejoin:round;">
<text x="81444.9" y="11446.9"
textLength="1709.49" font-size="524.934" lengthAdjust="spacingAndGlyphs"
text-anchor="middle" opacity="0">VBATT</text>
<path d="M80648 11034
L80779 11428
L80910 11034
" />
<path d="M81173 11221
L81229 11240
L81248 11259
L81266 11296
L81266 11353
L81248 11390
L81229 11409
L81191 11428
L81041 11428
L81041 11034
L81173 11034
L81210 11053
L81229 11071
L81248 11109
L81248 11146
L81229 11184
L81210 11203
L81173 11221
L81041 11221
" />
<path d="M81416 11315
L81604 11315
" />
<path d="M81379 11428
L81510 11034
L81641 11428
" />
<path d="M81716 11034
L81941 11034
" />
<path d="M81829 11428
L81829 11034
" />
<path d="M82016 11034
L82241 11034
" />
<path d="M82129 11428
L82129 11034
" />
<text x="81444.9" y="9576.77"
textLength="751.687" font-size="524.934" lengthAdjust="spacingAndGlyphs"
text-anchor="middle" opacity="0">J2</text>
<path d="M81313 9164
L81313 9445
L81294 9501
L81257 9539
L81201 9558
L81163 9558
" />
<path d="M81482 9201
L81501 9183
L81538 9164
L81632 9164
L81669 9183
L81688 9201
L81707 9239
L81707 9276
L81688 9333
L81463 9558
L81707 9558
" />
<g transform="rotate(-90 61464.6 7017.72)">
<text x="61464.6" y="7214.57"
textLength="1782.81" font-size="524.934" lengthAdjust="spacingAndGlyphs"
text-anchor="middle" opacity="0">Serial</text>
</g>
<path d="M61623 7795
L61642 7739
L61642 7645
L61623 7608
L61605 7589
L61567 7570
L61530 7570
L61492 7589
L61473 7608
L61455 7645
L61436 7720
L61417 7758
L61398 7776
L61361 7795
L61323 7795
L61286 7776
L61267 7758
L61248 7720
L61248 7627
L61267 7570
" />
<path d="M61623 7252
L61642 7289
L61642 7364
L61623 7402
L61586 7420
L61436 7420
L61398 7402
L61380 7364
L61380 7289
L61398 7252
L61436 7233
L61473 7233
L61511 7420
" />
<path d="M61642 7064
L61380 7064
" />
<path d="M61455 7064
L61417 7045
L61398 7027
L61380 6989
L61380 6952
" />
<path d="M61642 6820
L61380 6820
" />
<path d="M61248 6820
L61267 6839
L61286 6820
L61267 6802
L61248 6820
L61286 6820
" />
<path d="M61642 6464
L61436 6464
L61398 6483
L61380 6520
L61380 6595
L61398 6633
" />
<path d="M61623 6464
L61642 6502
L61642 6595
L61623 6633
L61586 6652
L61548 6652
L61511 6633
L61492 6595
L61492 6502
L61473 6464
" />
<path d="M61642 6220
L61623 6258
L61586 6277
L61248 6277
" />
<g transform="rotate(-90 62645.7 8372.05)">
<text x="62645.7" y="8568.9"
textLength="751.687" font-size="524.934" lengthAdjust="spacingAndGlyphs"
text-anchor="middle" opacity="0">J3</text>
</g>
<path d="M62430 8503
L62711 8503
L62767 8522
L62805 8559
L62823 8615
L62823 8653
" />
<path d="M62430 8353
L62430 8109
L62580 8240
L62580 8184
L62598 8147
L62617 8128
L62655 8109
L62748 8109
L62786 8128
L62805 8147
L62823 8184
L62823 8297
L62805 8334
L62786 8353
" />
<text x="76818.9" y="4734.25"
textLength="2663.95" font-size="524.934" lengthAdjust="spacingAndGlyphs"
text-anchor="middle" opacity="0">AO3401A</text>
<path d="M75600 4603
L75787 4603
" />
<path d="M75562 4715
L75694 4321
L75825 4715
" />
<path d="M76031 4321
L76106 4321
L76143 4340
L76181 4378
L76200 4453
L76200 4584
L76181 4659
L76143 4696
L76106 4715
L76031 4715
L75993 4696
L75956 4659
L75937 4584
L75937 4453
L75956 4378
L75993 4340
L76031 4321
" />
<path d="M76331 4321
L76575 4321
L76443 4471
L76500 4471
L76537 4490
L76556 4509
L76575 4546
L76575 4640
L76556 4678
L76537 4696
L76500 4715
L76387 4715
L76350 4696
L76331 4678
" />
<path d="M76912 4453
L76912 4715
" />
<path d="M76818 4303
L76725 4584
L76968 4584
" />
<path d="M77193 4321
L77231 4321
L77268 4340
L77287 4359
L77306 4396
L77325 4471
L77325 4565
L77306 4640
L77287 4678
L77268 4696
L77231 4715
L77193 4715
L77156 4696
L77137 4678
L77118 4640
L77100 4565
L77100 4471
L77118 4396
L77137 4359
L77156 4340
L77193 4321
" />
<path d="M77700 4715
L77475 4715
" />
<path d="M77587 4715
L77587 4321
L77550 4378
L77512 4415
L77475 4434
" />
<path d="M77850 4603
L78037 4603
" />
<path d="M77812 4715
L77943 4321
L78074 4715
" />
</g>
<g style="fill:#000000; fill-opacity:0.0; 
stroke:#000000; stroke-width:29.5276; stroke-opacity:1; 
stroke-linecap:round; stroke-linejoin:round;">
<text x="76818.9" y="5718.5"
textLength="470.472" font-size="262.467" lengthAdjust="spacingAndGlyphs"
text-anchor="middle" opacity="0">Q1</text>
<path d="M76800 5727
L76781 5718
L76762 5699
L76734 5671
L76715 5662
L76697 5662
" />
<path d="M76706 5709
L76687 5699
L76668 5681
L76659 5643
L76659 5577
L76668 5540
L76687 5521
L76706 5512
L76743 5512
L76762 5521
L76781 5540
L76790 5577
L76790 5643
L76781 5681
L76762 5699
L76743 5709
L76706 5709
" />
<path d="M76978 5709
L76865 5709
" />
<path d="M76922 5709
L76922 5512
L76903 5540
L76884 5559
L76865 5568
" />
</g>
<g style="fill:#000000; fill-opacity:0.0; 
stroke:#000000; stroke-width:59.0551; stroke-opacity:1; 
stroke-linecap:round; stroke-linejoin:round;">
<text x="76818.9" y="7116.14"
textLength="2719.3" font-size="524.934" lengthAdjust="spacingAndGlyphs"
text-anchor="middle" opacity="0">2N7002K</text>
<path d="M75553 6741
L75572 6722
L75609 6703
L75703 6703
L75740 6722
L75759 6741
L75778 6778
L75778 6816
L75759 6872
L75534 7097
L75778 7097
" />
<path d="M75947 7097
L75947 6703
L76172 7097
L76172 6703
" />
<path d="M76322 6703
L76584 6703
L76415 7097
" />
<path d="M76809 6703
L76847 6703
L76884 6722
L76903 6741
L76922 6778
L76940 6853
L76940 6947
L76922 7022
L76903 7059
L76884 7078
L76847 7097
L76809 7097
L76772 7078
L76753 7059
L76734 7022
L76715 6947
L76715 6853
L76734 6778
L76753 6741
L76772 6722
L76809 6703
" />
<path d="M77184 6703
L77221 6703
L77259 6722
L77278 6741
L77296 6778
L77315 6853
L77315 6947
L77296 7022
L77278 7059
L77259 7078
L77221 7097
L77184 7097
L77146 7078
L77128 7059
L77109 7022
L77090 6947
L77090 6853
L77109 6778
L77128 6741
L77146 6722
L77184 6703
" />
<path d="M77465 6741
L77484 6722
L77521 6703
L77615 6703
L77653 6722
L77671 6741
L77690 6778
L77690 6816
L77671 6872
L77446 7097
L77690 7097
" />
<path d="M77859 7097
L77859 6703
" />
<path d="M78084 7097
L77915 6872
" />
<path d="M78084 6703
L77859 6928
" />
</g>
<g style="fill:#000000; fill-opacity:0.0; 
stroke:#000000; stroke-width:29.5276; stroke-opacity:1; 
stroke-linecap:round; stroke-linejoin:round;">
<text x="76818.9" y="8001.97"
textLength="470.472" font-size="262.467" lengthAdjust="spacingAndGlyphs"
text-anchor="middle" opacity="0">Q2</text>
<path d="M76800 8011
L76781 8001
L76762 7983
L76734 7955
L76715 7945
L76697 7945
" />
<path d="M76706 7992
L76687 7983
L76668 7964
L76659 7926
L76659 7861
L76668 7823
L76687 7805
L76706 7795
L76743 7795
L76762 7805
L76781 7823
L76790 7861
L76790 7926
L76781 7964
L76762 7983
L76743 7992
L76706 7992
" />
<path d="M76865 7814
L76875 7805
L76893 7795
L76940 7795
L76959 7805
L76968 7814
L76978 7833
L76978 7851
L76968 7880
L76856 7992
L76978 7992
" />
</g>
<g style="fill:#000000; fill-opacity:0.0; 
stroke:#000000; stroke-width:59.0551; stroke-opacity:1; 
stroke-linecap:round; stroke-linejoin:round;">
<g transform="rotate(-90 81838.6 7903.54)">
<text x="81838.6" y="8100.39"
textLength="1181.99" font-size="524.934" lengthAdjust="spacingAndGlyphs"
text-anchor="middle" opacity="0">10K</text>
</g>
<path d="M82016 8175
L82016 8400
" />
<path d="M82016 8287
L81622 8287
L81679 8325
L81716 8362
L81735 8400
" />
<path d="M81622 7931
L81622 7894
L81641 7856
L81660 7837
L81697 7819
L81772 7800
L81866 7800
L81941 7819
L81979 7837
L81997 7856
L82016 7894
L82016 7931
L81997 7969
L81979 7987
L81941 8006
L81866 8025
L81772 8025
L81697 8006
L81660 7987
L81641 7969
L81622 7931
" />
<path d="M82016 7631
L81622 7631
" />
<path d="M82016 7406
L81791 7575
" />
<path d="M81622 7406
L81847 7631
" />
</g>
<g style="fill:#000000; fill-opacity:0.0; 
stroke:#000000; stroke-width:31.4961; stroke-opacity:1; 
stroke-linecap:round; stroke-linejoin:round;">
<g transform="rotate(-90 81149.6 7903.54)">
<text x="81149.6" y="8001.97"
textLength="461.098" font-size="262.467" lengthAdjust="spacingAndGlyphs"
text-anchor="middle" opacity="0">R1</text>
</g>
<path d="M81238 7936
L81144 8001
" />
<path d="M81238 8048
L81041 8048
L81041 7973
L81051 7955
L81060 7945
L81079 7936
L81107 7936
L81126 7945
L81135 7955
L81144 7973
L81144 8048
" />
<path d="M81238 7748
L81238 7861
" />
<path d="M81238 7805
L81041 7805
L81069 7823
L81088 7842
L81098 7861
" />
</g>
<g style="fill:#000000; fill-opacity:0.0; 
stroke:#000000; stroke-width:59.0551; stroke-opacity:1; 
stroke-linecap:round; stroke-linejoin:round;">
<g transform="rotate(-90 79476.4 7903.54)">
<text x="79476.4" y="8100.39"
textLength="1184.55" font-size="524.934" lengthAdjust="spacingAndGlyphs"
text-anchor="middle" opacity="0">10K</text>
</g>
<path d="M79654 8175
L79654 8400
" />
<path d="M79654 8287
L79260 8287
L79317 8325
L79354 8362
L79373 8400
" />
<path d="M79260 7931
L79260 7894
L79279 7856
L79298 7837
L79335 7819
L79410 7800
L79504 7800
L79579 7819
L79616 7837
L79635 7856
L79654 7894
L79654 7931
L79635 7969
L79616 7987
L79579 8006
L79504 8025
L79410 8025
L79335 8006
L79298 7987
L79279 7969
L79260 7931
" />
<path d="M79654 7631
L79260 7631
" />
<path d="M79654 7406
L79429 7575
" />
<path d="M79260 7406
L79485 7631
" />
</g>
<g style="fill:#000000; fill-opacity:0.0; 
stroke:#000000; stroke-width:31.4961; stroke-opacity:1; 
stroke-linecap:round; stroke-linejoin:round;">
<g transform="rotate(-90 80165.3 7903.54)">
<text x="80165.3" y="8001.97"
textLength="461.098" font-size="262.467" lengthAdjust="spacingAndGlyphs"
text-anchor="middle" opacity="0">R2</text>
</g>
<path d="M80254 7936
L80160 8001
" />
<path d="M80254 8048
L80057 8048
L80057 7973
L80066 7955
L80076 7945
L80095 7936
L80123 7936
L80141 7945
L80151 7955
L80160 7973
L80160 8048
" />
<path d="M80076 7861
L80066 7851
L80057 7833
L80057 7786
L80066 7767
L80076 7758
L80095 7748
L80113 7748
L80141 7758
L80254 7870
L80254 7748
" />
</g>
<g style="fill:#000000; fill-opacity:0.0; 
stroke:#000000; stroke-width:59.0551; stroke-opacity:1; 
stroke-linecap:round; stroke-linejoin:round;">
<g transform="rotate(-90 79338.6 5738.19)">
<text x="79338.6" y="5935.04"
textLength="1184.55" font-size="524.934" lengthAdjust="spacingAndGlyphs"
text-anchor="middle" opacity="0">10K</text>
</g>
<path d="M79516 6010
L79516 6235
" />
<path d="M79516 6122
L79122 6122
L79179 6160
L79216 6197
L79235 6235
" />
<path d="M79122 5766
L79122 5728
L79141 5691
L79160 5672
L79197 5653
L79272 5635
L79366 5635
L79441 5653
L79479 5672
L79497 5691
L79516 5728
L79516 5766
L79497 5803
L79479 5822
L79441 5841
L79366 5860
L79272 5860
L79197 5841
L79160 5822
L79141 5803
L79122 5766
" />
<path d="M79516 5466
L79122 5466
" />
<path d="M79516 5241
L79291 5410
" />
<path d="M79122 5241
L79347 5466
" />
</g>
<g style="fill:#000000; fill-opacity:0.0; 
stroke:#000000; stroke-width:31.4961; stroke-opacity:1; 
stroke-linecap:round; stroke-linejoin:round;">
<g transform="rotate(-90 78689 5738.19)">
<text x="78689" y="5836.61"
textLength="461.098" font-size="262.467" lengthAdjust="spacingAndGlyphs"
text-anchor="middle" opacity="0">R3</text>
</g>
<path d="M78778 5770
L78684 5836
" />
<path d="M78778 5883
L78581 5883
L78581 5808
L78590 5789
L78599 5780
L78618 5770
L78646 5770
L78665 5780
L78674 5789
L78684 5808
L78684 5883
" />
<path d="M78581 5705
L78581 5583
L78656 5649
L78656 5621
L78665 5602
L78674 5592
L78693 5583
L78740 5583
L78759 5592
L78768 5602
L78778 5621
L78778 5677
L78768 5696
L78759 5705
" />
</g>
<g style="fill:#000000; fill-opacity:0.0; 
stroke:#000000; stroke-width:59.0551; stroke-opacity:1; 
stroke-linecap:round; stroke-linejoin:round;">
<text x="71503.9" y="5541.34"
textLength="1184.55" font-size="524.934" lengthAdjust="spacingAndGlyphs"
text-anchor="middle" opacity="0">10K</text>
<path d="M71232 5522
L71007 5522
" />
<path d="M71119 5522
L71119 5128
L71082 5185
L71044 5222
L71007 5241
" />
<path d="M71475 5128
L71513 5128
L71550 5147
L71569 5166
L71588 5203
L71607 5278
L71607 5372
L71588 5447
L71569 5485
L71550 5503
L71513 5522
L71475 5522
L71438 5503
L71419 5485
L71400 5447
L71382 5372
L71382 5278
L71400 5203
L71419 5166
L71438 5147
L71475 5128
" />
<path d="M71775 5522
L71775 5128
" />
<path d="M72000 5522
L71832 5297
" />
<path d="M72000 5128
L71775 5353
" />
</g>
<g style="fill:#000000; fill-opacity:0.0; 
stroke:#000000; stroke-width:31.4961; stroke-opacity:1; 
stroke-linecap:round; stroke-linejoin:round;">
<text x="72488.2" y="5639.76"
textLength="461.098" font-size="262.467" lengthAdjust="spacingAndGlyphs"
text-anchor="middle" opacity="0">R4</text>
<path d="M72455 5630
L72389 5536
" />
<path d="M72342 5630
L72342 5433
L72417 5433
L72436 5442
L72446 5452
L72455 5471
L72455 5499
L72446 5517
L72436 5527
L72417 5536
L72342 5536
" />
<path d="M72624 5499
L72624 5630
" />
<path d="M72577 5424
L72530 5564
L72652 5564
" />
</g>
<g style="fill:#000000; fill-opacity:0.0; 
stroke:#000000; stroke-width:59.0551; stroke-opacity:1; 
stroke-linecap:round; stroke-linejoin:round;">
<text x="71503.9" y="4557.09"
textLength="1184.55" font-size="524.934" lengthAdjust="spacingAndGlyphs"
text-anchor="middle" opacity="0">10K</text>
<path d="M71232 4538
L71007 4538
" />
<path d="M71119 4538
L71119 4144
L71082 4200
L71044 4238
L71007 4257
" />
<path d="M71475 4144
L71513 4144
L71550 4163
L71569 4182
L71588 4219
L71607 4294
L71607 4388
L71588 4463
L71569 4500
L71550 4519
L71513 4538
L71475 4538
L71438 4519
L71419 4500
L71400 4463
L71382 4388
L71382 4294
L71400 4219
L71419 4182
L71438 4163
L71475 4144
" />
<path d="M71775 4538
L71775 4144
" />
<path d="M72000 4538
L71832 4313
" />
<path d="M72000 4144
L71775 4369
" />
</g>
<g style="fill:#000000; fill-opacity:0.0; 
stroke:#000000; stroke-width:31.4961; stroke-opacity:1; 
stroke-linecap:round; stroke-linejoin:round;">
<text x="72488.2" y="4753.94"
textLength="461.098" font-size="262.467" lengthAdjust="spacingAndGlyphs"
text-anchor="middle" opacity="0">R5</text>
<path d="M72455 4744
L72389 4650
" />
<path d="M72342 4744
L72342 4547
L72417 4547
L72436 4557
L72446 4566
L72455 4585
L72455 4613
L72446 4632
L72436 4641
L72417 4650
L72342 4650
" />
<path d="M72633 4547
L72539 4547
L72530 4641
L72539 4632
L72558 4622
L72605 4622
L72624 4632
L72633 4641
L72642 4660
L72642 4707
L72633 4725
L72624 4735
L72605 4744
L72558 4744
L72539 4735
L72530 4725
" />
</g>
<g style="fill:#000000; fill-opacity:0.0; 
stroke:#000000; stroke-width:59.0551; stroke-opacity:1; 
stroke-linecap:round; stroke-linejoin:round;">
<g transform="rotate(-90 78000 7864.17)">
<text x="78000" y="8061.02"
textLength="1184.55" font-size="524.934" lengthAdjust="spacingAndGlyphs"
text-anchor="middle" opacity="0">10K</text>
</g>
<path d="M78178 8136
L78178 8360
" />
<path d="M78178 8248
L77784 8248
L77840 8285
L77878 8323
L77896 8360
" />
<path d="M77784 7892
L77784 7854
L77803 7817
L77821 7798
L77859 7779
L77934 7761
L78028 7761
L78103 7779
L78140 7798
L78159 7817
L78178 7854
L78178 7892
L78159 7929
L78140 7948
L78103 7967
L78028 7986
L77934 7986
L77859 7967
L77821 7948
L77803 7929
L77784 7892
" />
<path d="M78178 7592
L77784 7592
" />
<path d="M78178 7367
L77953 7536
" />
<path d="M77784 7367
L78009 7592
" />
</g>
<g style="fill:#000000; fill-opacity:0.0; 
stroke:#000000; stroke-width:31.4961; stroke-opacity:1; 
stroke-linecap:round; stroke-linejoin:round;">
<g transform="rotate(-90 78689 7903.54)">
<text x="78689" y="8001.97"
textLength="461.098" font-size="262.467" lengthAdjust="spacingAndGlyphs"
text-anchor="middle" opacity="0">R6</text>
</g>
<path d="M78778 7936
L78684 8001
" />
<path d="M78778 8048
L78581 8048
L78581 7973
L78590 7955
L78599 7945
L78618 7936
L78646 7936
L78665 7945
L78674 7955
L78684 7973
L78684 8048
" />
<path d="M78581 7767
L78581 7805
L78590 7823
L78599 7833
L78628 7851
L78665 7861
L78740 7861
L78759 7851
L78768 7842
L78778 7823
L78778 7786
L78768 7767
L78759 7758
L78740 7748
L78693 7748
L78674 7758
L78665 7767
L78656 7786
L78656 7823
L78665 7842
L78674 7851
L78693 7861
" />
</g>
<g style="fill:#000000; fill-opacity:0.0; 
stroke:#000000; stroke-width:59.0551; stroke-opacity:1; 
stroke-linecap:round; stroke-linejoin:round;">
<text x="71503.9" y="7706.69"
textLength="1184.55" font-size="524.934" lengthAdjust="spacingAndGlyphs"
text-anchor="middle" opacity="0">10K</text>
<path d="M71232 7687
L71007 7687
" />
<path d="M71119 7687
L71119 7294
L71082 7350
L71044 7387
L71007 7406
" />
<path d="M71475 7294
L71513 7294
L71550 7312
L71569 7331
L71588 7369
L71607 7444
L71607 7537
L71588 7612
L71569 7650
L71550 7669
L71513 7687
L71475 7687
L71438 7669
L71419 7650
L71400 7612
L71382 7537
L71382 7444
L71400 7369
L71419 7331
L71438 7312
L71475 7294
" />
<path d="M71775 7687
L71775 7294
" />
<path d="M72000 7687
L71832 7462
" />
<path d="M72000 7294
L71775 7519
" />
</g>
<g style="fill:#000000; fill-opacity:0.0; 
stroke:#000000; stroke-width:31.4961; stroke-opacity:1; 
stroke-linecap:round; stroke-linejoin:round;">
<text x="72488.2" y="7411.42"
textLength="461.098" font-size="262.467" lengthAdjust="spacingAndGlyphs"
text-anchor="middle" opacity="0">R7</text>
<path d="M72455 7402
L72389 7308
" />
<path d="M72342 7402
L72342 7205
L72417 7205
L72436 7214
L72446 7223
L72455 7242
L72455 7270
L72446 7289
L72436 7298
L72417 7308
L72342 7308
" />
<path d="M72520 7205
L72652 7205
L72567 7402
" />
</g>
<g style="fill:#000000; fill-opacity:0.0; 
stroke:#000000; stroke-width:59.0551; stroke-opacity:1; 
stroke-linecap:round; stroke-linejoin:round;">
<text x="62252" y="2490.16"
textLength="1165.8" font-size="524.934" lengthAdjust="spacingAndGlyphs"
text-anchor="middle" opacity="0">330</text>
<path d="M61745 2077
L61989 2077
L61858 2227
L61914 2227
L61951 2246
L61970 2265
L61989 2302
L61989 2396
L61970 2433
L61951 2452
L61914 2471
L61802 2471
L61764 2452
L61745 2433
" />
<path d="M62120 2077
L62364 2077
L62233 2227
L62289 2227
L62326 2246
L62345 2265
L62364 2302
L62364 2396
L62345 2433
L62326 2452
L62289 2471
L62176 2471
L62139 2452
L62120 2433
" />
<path d="M62608 2077
L62645 2077
L62683 2096
L62701 2115
L62720 2152
L62739 2227
L62739 2321
L62720 2396
L62701 2433
L62683 2452
L62645 2471
L62608 2471
L62570 2452
L62551 2433
L62533 2396
L62514 2321
L62514 2227
L62533 2152
L62551 2115
L62570 2096
L62608 2077
" />
</g>
<g style="fill:#000000; fill-opacity:0.0; 
stroke:#000000; stroke-width:31.4961; stroke-opacity:1; 
stroke-linecap:round; stroke-linejoin:round;">
<text x="62252" y="1702.76"
textLength="461.098" font-size="262.467" lengthAdjust="spacingAndGlyphs"
text-anchor="middle" opacity="0">R8</text>
<path d="M62219 1693
L62153 1599
" />
<path d="M62106 1693
L62106 1496
L62181 1496
L62200 1505
L62209 1515
L62219 1534
L62219 1562
L62209 1580
L62200 1590
L62181 1599
L62106 1599
" />
<path d="M62331 1580
L62312 1571
L62303 1562
L62294 1543
L62294 1534
L62303 1515
L62312 1505
L62331 1496
L62369 1496
L62387 1505
L62397 1515
L62406 1534
L62406 1543
L62397 1562
L62387 1571
L62369 1580
L62331 1580
L62312 1590
L62303 1599
L62294 1618
L62294 1655
L62303 1674
L62312 1684
L62331 1693
L62369 1693
L62387 1684
L62397 1674
L62406 1655
L62406 1618
L62397 1599
L62387 1590
L62369 1580
" />
</g>
<g style="fill:#000000; fill-opacity:0.0; 
stroke:#000000; stroke-width:59.0551; stroke-opacity:1; 
stroke-linecap:round; stroke-linejoin:round;">
<g transform="rotate(-90 81346.5 4557.09)">
<text x="81346.5" y="4753.94"
textLength="2403.15" font-size="524.934" lengthAdjust="spacingAndGlyphs"
text-anchor="middle" opacity="0">SW_PWR</text>
</g>
<path d="M81505 5663
L81524 5606
L81524 5513
L81505 5475
L81487 5456
L81449 5438
L81412 5438
L81374 5456
L81355 5475
L81337 5513
L81318 5588
L81299 5625
L81280 5644
L81243 5663
L81205 5663
L81168 5644
L81149 5625
L81130 5588
L81130 5494
L81149 5438
" />
<path d="M81130 5306
L81524 5213
L81243 5138
L81524 5063
L81130 4969
" />
<path d="M81562 4913
L81562 4613
" />
<path d="M81524 4519
L81130 4519
L81130 4369
L81149 4332
L81168 4313
L81205 4294
L81262 4294
L81299 4313
L81318 4332
L81337 4369
L81337 4519
" />
<path d="M81130 4163
L81524 4069
L81243 3994
L81524 3919
L81130 3825
" />
<path d="M81524 3450
L81337 3582
" />
<path d="M81524 3675
L81130 3675
L81130 3525
L81149 3488
L81168 3469
L81205 3450
L81262 3450
L81299 3469
L81318 3488
L81337 3525
L81337 3675
" />
<text x="77527.6" y="1210.63"
textLength="1914.04" font-size="524.934" lengthAdjust="spacingAndGlyphs"
text-anchor="middle" opacity="0">PB_01</text>
<path d="M76702 1191
L76702 798
L76852 798
L76890 816
L76908 835
L76927 873
L76927 929
L76908 966
L76890 985
L76852 1004
L76702 1004
" />
<path d="M77227 985
L77283 1004
L77302 1023
L77321 1060
L77321 1116
L77302 1154
L77283 1173
L77246 1191
L77096 1191
L77096 798
L77227 798
L77265 816
L77283 835
L77302 873
L77302 910
L77283 948
L77265 966
L77227 985
L77096 985
" />
<path d="M77396 1229
L77696 1229
" />
<path d="M77865 798
L77902 798
L77940 816
L77958 835
L77977 873
L77996 948
L77996 1041
L77977 1116
L77958 1154
L77940 1173
L77902 1191
L77865 1191
L77827 1173
L77808 1154
L77790 1116
L77771 1041
L77771 948
L77790 873
L77808 835
L77827 816
L77865 798
" />
<path d="M78371 1191
L78146 1191
" />
<path d="M78258 1191
L78258 798
L78221 854
L78183 891
L78146 910
" />
<text x="77507.9" y="2883.86"
textLength="1276.62" font-size="524.934" lengthAdjust="spacingAndGlyphs"
text-anchor="middle" opacity="0">SW2</text>
<path d="M76982 2846
L77039 2865
L77132 2865
L77170 2846
L77189 2827
L77207 2790
L77207 2752
L77189 2715
L77170 2696
L77132 2677
L77057 2658
L77020 2640
L77001 2621
L76982 2583
L76982 2546
L77001 2508
L77020 2490
L77057 2471
L77151 2471
L77207 2490
" />
<path d="M77339 2471
L77432 2865
L77507 2583
L77582 2865
L77676 2471
" />
<path d="M77807 2508
L77826 2490
L77864 2471
L77957 2471
L77995 2490
L78014 2508
L78032 2546
L78032 2583
L78014 2640
L77789 2865
L78032 2865
" />
<text x="73590.5" y="1210.63"
textLength="1914.04" font-size="524.934" lengthAdjust="spacingAndGlyphs"
text-anchor="middle" opacity="0">PB_02</text>
<path d="M72765 1191
L72765 798
L72915 798
L72953 816
L72971 835
L72990 873
L72990 929
L72971 966
L72953 985
L72915 1004
L72765 1004
" />
<path d="M73290 985
L73346 1004
L73365 1023
L73384 1060
L73384 1116
L73365 1154
L73346 1173
L73309 1191
L73159 1191
L73159 798
L73290 798
L73328 816
L73346 835
L73365 873
L73365 910
L73346 948
L73328 966
L73290 985
L73159 985
" />
<path d="M73459 1229
L73759 1229
" />
<path d="M73928 798
L73965 798
L74002 816
L74021 835
L74040 873
L74059 948
L74059 1041
L74040 1116
L74021 1154
L74002 1173
L73965 1191
L73928 1191
L73890 1173
L73871 1154
L73853 1116
L73834 1041
L73834 948
L73853 873
L73871 835
L73890 816
L73928 798
" />
<path d="M74209 835
L74227 816
L74265 798
L74359 798
L74396 816
L74415 835
L74434 873
L74434 910
L74415 966
L74190 1191
L74434 1191
" />
<text x="73570.9" y="2883.86"
textLength="1276.62" font-size="524.934" lengthAdjust="spacingAndGlyphs"
text-anchor="middle" opacity="0">SW3</text>
<path d="M73045 2846
L73102 2865
L73195 2865
L73233 2846
L73252 2827
L73270 2790
L73270 2752
L73252 2715
L73233 2696
L73195 2677
L73120 2658
L73083 2640
L73064 2621
L73045 2583
L73045 2546
L73064 2508
L73083 2490
L73120 2471
L73214 2471
L73270 2490
" />
<path d="M73402 2471
L73495 2865
L73570 2583
L73645 2865
L73739 2471
" />
<path d="M73852 2471
L74095 2471
L73964 2621
L74020 2621
L74058 2640
L74077 2658
L74095 2696
L74095 2790
L74077 2827
L74058 2846
L74020 2865
L73908 2865
L73870 2846
L73852 2827
" />
<text x="73669.3" y="11446.9"
textLength="4163.76" font-size="524.934" lengthAdjust="spacingAndGlyphs"
text-anchor="middle" opacity="0">AMS1117-3.3</text>
<path d="M71700 11315
L71888 11315
" />
<path d="M71663 11428
L71794 11034
L71925 11428
" />
<path d="M72056 11428
L72056 11034
L72188 11315
L72319 11034
L72319 11428
" />
<path d="M72488 11409
L72544 11428
L72638 11428
L72675 11409
L72694 11390
L72713 11353
L72713 11315
L72694 11278
L72675 11259
L72638 11240
L72563 11221
L72525 11203
L72506 11184
L72488 11146
L72488 11109
L72506 11071
L72525 11053
L72563 11034
L72656 11034
L72713 11053
" />
<path d="M73088 11428
L72863 11428
" />
<path d="M72975 11428
L72975 11034
L72938 11090
L72900 11128
L72863 11146
" />
<path d="M73463 11428
L73238 11428
" />
<path d="M73350 11428
L73350 11034
L73313 11090
L73275 11128
L73238 11146
" />
<path d="M73838 11428
L73613 11428
" />
<path d="M73725 11428
L73725 11034
L73688 11090
L73650 11128
L73613 11146
" />
<path d="M73969 11034
L74231 11034
L74062 11428
" />
<path d="M74381 11278
L74681 11278
" />
<path d="M74831 11034
L75075 11034
L74944 11184
L75000 11184
L75037 11203
L75056 11221
L75075 11259
L75075 11353
L75056 11390
L75037 11409
L75000 11428
L74887 11428
L74850 11409
L74831 11390
" />
<path d="M75244 11390
L75262 11409
L75244 11428
L75225 11409
L75244 11390
L75244 11428
" />
<path d="M75394 11034
L75637 11034
L75506 11184
L75562 11184
L75600 11203
L75619 11221
L75637 11259
L75637 11353
L75619 11390
L75600 11409
L75562 11428
L75450 11428
L75412 11409
L75394 11390
" />
</g>
<g style="fill:#000000; fill-opacity:0.0; 
stroke:#000000; stroke-width:47.2441; stroke-opacity:1; 
stroke-linecap:round; stroke-linejoin:round;">
<g transform="rotate(-90 73570.9 9478.35)">
<text x="73570.9" y="9635.83"
textLength="706.693" font-size="419.947" lengthAdjust="spacingAndGlyphs"
text-anchor="middle" opacity="0">U1</text>
</g>
<path d="M73398 9718
L73653 9718
L73683 9703
L73698 9688
L73713 9658
L73713 9598
L73698 9568
L73683 9553
L73653 9538
L73398 9538
" />
<path d="M73713 9223
L73713 9403
" />
<path d="M73713 9313
L73398 9313
L73443 9343
L73473 9373
L73488 9403
" />
<g >
</g>
</g>
<g style="fill:#000000; fill-opacity:0.0; 
stroke:#000000; stroke-width:47.2441; stroke-opacity:1; 
stroke-linecap:round; stroke-linejoin:round;">
</g>
<g style="fill:#000000; fill-opacity:0.0; 
stroke:#000000; stroke-width:4.42913; stroke-opacity:1; 
stroke-linecap:round; stroke-linejoin:round;">
<path d="M82833 1298
L82986 1145
" />
<path d="M81937 1506
L82226 1217
" />
<path d="M81249 1506
L81539 1216
" />
<path d="M82226 1217
L81936 927
" />
<path d="M82451 1099
L82334 1216
" />
<path d="M81937 2303
L81782 2457
" />
<path d="M82779 2457
L82624 2302
" />
<path d="M82470 2457
L82779 2457
" />
<path d="M82624 2302
L82470 2457
" />
<path d="M82199 664
L81991 873
" />
<path d="M83162 886
L82844 1204
" />
<path d="M81538 1904
L81249 1615
" />
<path d="M81249 2194
L81538 1904
" />
<path d="M82280 1271
L81991 1560
" />
<path d="M81303 872
L81593 1162
" />
<path d="M81539 1216
L81249 926
" />
<path d="M82804 1193
L82451 1099
" />
<path d="M82844 1204
L82804 1193
" />
<path d="M82678 2248
L82833 2403
" />
<path d="M82833 2094
L82678 2248
" />
<path d="M82570 2248
L82280 1959
" />
<path d="M82362 2457
L82570 2248
" />
<path d="M1051 19472
L761 19762
" />
<path d="M309 19419
L155 19264
" />
<path d="M155 19573
L309 19419
" />
<path d="M155 19264
L155 19573
" />
<path d="M155 20261
L309 20106
" />
<path d="M155 19952
L155 20261
" />
<path d="M1947 20261
L1947 19952
" />
<path d="M1793 20106
L1947 20261
" />
<path d="M82833 1406
L82678 1560
" />
<path d="M1893 20315
L1739 20160
" />
<path d="M1584 20315
L1893 20315
" />
<path d="M1739 20160
L1584 20315
" />
<path d="M309 20106
L155 19952
" />
<path d="M517 20315
L363 20161
" />
<path d="M209 20315
L517 20315
" />
<path d="M82280 1162
L82398 1045
" />
<path d="M82352 511
L82199 664
" />
<path d="M81040 1715
L81195 1561
" />
<path d="M81511 664
L81303 872
" />
<path d="M82452 695
L82526 970
" />
<path d="M81194 2249
L81040 2094
" />
<path d="M81040 2403
L81194 2249
" />
<path d="M81040 2094
L81040 2403
" />
<path d="M82833 2403
L82833 2094
" />
<path d="M209 18522
L363 18676
" />
<path d="M517 18522
L209 18522
" />
<path d="M997 18731
L788 18522
" />
<path d="M707 19020
L997 18731
" />
<path d="M309 18730
L155 18576
" />
<path d="M155 18885
L309 18730
" />
<path d="M155 18576
L155 18885
" />
<path d="M363 18676
L517 18522
" />
<path d="M82801 1044
L83002 843
" />
<path d="M82292 653
L82611 334
" />
<path d="M81040 1135
L81040 1298
" />
<path d="M83002 843
L82929 568
" />
<path d="M82334 1216
L82624 1506
" />
<path d="M363 19364
L653 19074
" />
<path d="M155 19156
L363 19364
" />
<path d="M155 18993
L155 19156
" />
<path d="M363 18784
L155 18993
" />
<path d="M1105 20107
L1313 20315
" />
<path d="M1395 19817
L1105 20107
" />
<path d="M997 20106
L707 19817
" />
<path d="M789 20315
L997 20106
" />
<path d="M1051 19364
L1341 19075
" />
<path d="M761 19074
L1051 19364
" />
<path d="M1051 18785
L761 19074
" />
<path d="M653 19074
L363 18784
" />
<path d="M1313 18522
L1105 18731
" />
<path d="M1466 18369
L1313 18522
" />
<path d="M2 18369
L1466 18369
" />
<path d="M2 20467
L2 18369
" />
<path d="M1915 18902
L2117 18701
" />
<path d="M1640 18828
L1915 18902
" />
<path d="M1567 18553
L1640 18828
" />
<path d="M1768 18352
L1567 18553
" />
<path d="M1947 19952
L1793 20106
" />
<path d="M1684 20106
L1395 19817
" />
<path d="M1476 20315
L1684 20106
" />
<path d="M1313 20315
L1476 20315
" />
<path d="M707 19708
L997 19418
" />
<path d="M417 19418
L707 19708
" />
<path d="M707 19129
L417 19418
" />
<path d="M1684 19418
L1395 19129
" />
<path d="M81593 1162
L81882 873
" />
<path d="M417 18730
L707 19020
" />
<path d="M625 18522
L417 18730
" />
<path d="M788 18522
L625 18522
" />
<path d="M1051 18676
L1205 18522
" />
<path d="M653 19762
L363 19473
" />
<path d="M363 20052
L653 19762
" />
<path d="M155 19844
L363 20052
" />
<path d="M155 19681
L155 19844
" />
<path d="M81040 1298
L81249 1506
" />
<path d="M81647 1216
L81937 1506
" />
<path d="M81882 2248
L81593 1959
" />
<path d="M81674 2457
L81882 2248
" />
<path d="M81511 2457
L81674 2457
" />
<path d="M81303 2248
L81511 2457
" />
<path d="M81593 1959
L81303 2248
" />
<path d="M82833 1824
L82624 1615
" />
<path d="M81937 818
L82091 664
" />
<path d="M81095 664
L81249 818
" />
<path d="M82624 1506
L82833 1298
" />
<path d="M81782 664
L81937 818
" />
<path d="M81403 664
L81095 664
" />
<path d="M1947 19573
L1947 19264
" />
<path d="M1793 19418
L1947 19573
" />
<path d="M1947 19264
L1793 19418
" />
<path d="M997 19418
L707 19129
" />
<path d="M896 18522
L1051 18676
" />
<path d="M1205 18522
L896 18522
" />
<path d="M2043 18426
L1768 18352
" />
<path d="M2117 18701
L2043 18426
" />
<path d="M1407 18510
L1725 18192
" />
<path d="M1512 18903
L1407 18510
" />
<path d="M1395 19020
L1512 18903
" />
<path d="M1105 18731
L1395 19020
" />
<path d="M81882 873
L81674 664
" />
<path d="M81095 2457
L81403 2457
" />
<path d="M81249 2303
L81095 2457
" />
<path d="M82091 2457
L81937 2303
" />
<path d="M81782 2457
L82091 2457
" />
<path d="M82199 2457
L82362 2457
" />
<path d="M81991 2249
L82199 2457
" />
<path d="M82280 1959
L81991 2249
" />
<path d="M81991 873
L82280 1162
" />
<path d="M1449 19074
L1739 19364
" />
<path d="M1566 18957
L1449 19074
" />
<path d="M1918 19051
L1566 18957
" />
<path d="M1958 19062
L1918 19051
" />
<path d="M363 19473
L155 19681
" />
<path d="M1341 19762
L1051 19472
" />
<path d="M1051 20052
L1341 19762
" />
<path d="M761 19762
L1051 20052
" />
<path d="M82986 1145
L82986 2609
" />
<path d="M82226 1904
L81937 1614
" />
<path d="M81195 872
L81040 718
" />
<path d="M363 20161
L209 20315
" />
<path d="M1205 20315
L1051 20161
" />
<path d="M897 20315
L1205 20315
" />
<path d="M1051 20161
L897 20315
" />
<path d="M81040 1406
L81040 1715
" />
<path d="M625 20315
L789 20315
" />
<path d="M417 20106
L625 20315
" />
<path d="M707 19817
L417 20106
" />
<path d="M1947 19681
L1739 19473
" />
<path d="M82526 970
L82801 1044
" />
<path d="M2100 20467
L2 20467
" />
<path d="M2100 19003
L2100 20467
" />
<path d="M1947 19155
L2100 19003
" />
<path d="M1739 19364
L1947 19155
" />
<path d="M81195 1561
L81040 1406
" />
<path d="M82091 664
L81782 664
" />
<path d="M82611 334
L83046 451
" />
<path d="M81593 1850
L81882 1560
" />
<path d="M80887 511
L82352 511
" />
<path d="M82624 1615
L82335 1905
" />
<path d="M1947 19843
L1947 19681
" />
<path d="M1738 20052
L1947 19843
" />
<path d="M1449 19763
L1738 20052
" />
<path d="M1739 19473
L1449 19763
" />
<path d="M81040 718
L81040 1027
" />
<path d="M81249 1615
L81040 1823
" />
<path d="M81674 664
L81511 664
" />
<path d="M81882 1560
L81593 1271
" />
<path d="M81249 818
L81403 664
" />
<path d="M81040 1027
L81195 872
" />
<path d="M82570 1561
L82280 1271
" />
<path d="M82833 1986
L82833 1824
" />
<path d="M82624 2194
L82833 1986
" />
<path d="M82335 1905
L82624 2194
" />
<path d="M82678 1560
L82833 1715
" />
<path d="M82280 1850
L82570 1561
" />
<path d="M82833 1715
L82833 1406
" />
<path d="M81647 1904
L81937 2194
" />
<path d="M81040 1823
L81040 1986
" />
<path d="M81937 1614
L81647 1904
" />
<path d="M81936 927
L81647 1216
" />
<path d="M81040 1986
L81249 2194
" />
<path d="M81991 1560
L82280 1850
" />
<path d="M1395 19708
L1684 19418
" />
<path d="M1105 19418
L1395 19708
" />
<path d="M1395 19129
L1105 19418
" />
<path d="M1341 19075
L1051 18785
" />
<path d="M83046 451
L83162 886
" />
<path d="M81249 926
L81040 1135
" />
<path d="M82986 2609
L80887 2609
" />
<path d="M80887 2609
L80887 511
" />
<path d="M81593 1271
L81303 1561
" />
<path d="M2277 18744
L1958 19062
" />
<path d="M2160 18309
L2277 18744
" />
<path d="M1725 18192
L2160 18309
" />
<path d="M81403 2457
L81249 2303
" />
<path d="M82654 494
L82452 695
" />
<path d="M81303 1561
L81593 1850
" />
<path d="M82398 1045
L82292 653
" />
<path d="M82929 568
L82654 494
" />
<path d="M81937 2194
L82226 1904
" />
</g>
<g style="fill:#000000; fill-opacity:0.0; 
stroke:#000000; stroke-width:59.0551; stroke-opacity:1; 
stroke-linecap:round; stroke-linejoin:round;">
<path d="M57133 11840
L57133 29
" />
<path d="M83511 11840
L57133 11840
" />
<path d="M83511 29
L83511 11840
" />
<path d="M57133 29
L83511 29
" />
<g >
</g>
<g >
</g>
<g >
</g>
<g >
</g>
<g >
</g>
<g >
</g>
<g >
</g>
<g >
</g>
<g >
</g>
<g >
</g>
<g >
</g>
<g >
</g>
<g >
</g>
<g >
</g>
<g >
</g>
<g >
</g>
<g >
</g>
<g >
</g>
<g >
</g>
<g >
</g>
<g >
</g>
<g >
</g>
<g >
</g>
<g >
</g>
<g >
</g>
</g>
<g style="fill:#000000; fill-opacity:0.0; 
stroke:#000000; stroke-width:59.0551; stroke-opacity:1; 
stroke-linecap:round; stroke-linejoin:round;">
<g >
</g>
<g >
</g>
<g >
</g>
<g >
</g>
<g >
</g>
<g >
</g>
<g >
</g>
<g >
</g>
<g >
</g>
<g >
</g>
<g >
</g>
<g >
</g>
<g >
</g>
<g >
</g>
<g >
</g>
<g >
</g>
<g >
</g>
<g >
</g>
<g >
</g>
<g >
</g>
<g >
</g>
<g >
</g>
<g >
</g>
<g >
</g>
<g >
</g>
</g> 
</svg>
